<?xml version="1.0" encoding="UTF-8" standalone="no"?>
<!-- Created with Inkscape (http://www.inkscape.org/) -->

<svg
   xmlns:dc="http://purl.org/dc/elements/1.1/"
   xmlns:cc="http://creativecommons.org/ns#"
   xmlns:rdf="http://www.w3.org/1999/02/22-rdf-syntax-ns#"
   xmlns:svg="http://www.w3.org/2000/svg"
   xmlns="http://www.w3.org/2000/svg"
   xmlns:sodipodi="http://sodipodi.sourceforge.net/DTD/sodipodi-0.dtd"
   xmlns:inkscape="http://www.inkscape.org/namespaces/inkscape"
   width="210mm"
   height="297mm"
   viewBox="0 0 744.09448819 1052.3622047"
   id="svg2"
   version="1.1"
   inkscape:version="0.91 r13725"
   sodipodi:docname="b.svg">
  <defs
     id="defs4" />
  <sodipodi:namedview
     id="base"
     pagecolor="#ffffff"
     bordercolor="#666666"
     borderopacity="1.0"
     inkscape:pageopacity="0.0"
     inkscape:pageshadow="2"
     inkscape:zoom="0.35"
     inkscape:cx="380.71429"
     inkscape:cy="520"
     inkscape:document-units="px"
     inkscape:current-layer="layer1"
     showgrid="false"
     inkscape:window-width="1920"
     inkscape:window-height="1051"
     inkscape:window-x="0"
     inkscape:window-y="0"
     inkscape:window-maximized="1" />
  <metadata
     id="metadata7">
    <rdf:RDF>
      <cc:Work
         rdf:about="">
        <dc:format>image/svg+xml</dc:format>
        <dc:type
           rdf:resource="http://purl.org/dc/dcmitype/StillImage" />
        <dc:title></dc:title>
      </cc:Work>
    </rdf:RDF>
  </metadata>
  <g
     inkscape:label="Layer 1"
     inkscape:groupmode="layer"
     id="layer1">
    <flowRoot
       xml:space="preserve"
       id="flowRoot3485"
       style="fill:black;stroke:none;stroke-opacity:1;stroke-width:1px;stroke-linejoin:miter;stroke-linecap:butt;fill-opacity:1;font-family:'DejaVu Sans';font-style:normal;font-weight:normal;font-size:7.5px;line-height:125%;letter-spacing:0px;word-spacing:0px;text-anchor:start;text-align:start;writing-mode:lr;-inkscape-font-specification:'DejaVu Sans, Normal';font-stretch:normal;font-variant:normal"><flowRegion
         id="flowRegion3487"><rect
           id="rect3489"
           width="80"
           height="105.71429"
           x="137.14285"
           y="323.79077" /></flowRegion><flowPara
         id="flowPara3491"></flowPara></flowRoot>    <path
       style="fill:none;fill-rule:evenodd;stroke:#000000;stroke-width:1px;stroke-linecap:butt;stroke-linejoin:miter;stroke-opacity:1"
       d="m 271.42857,423.79078 c 20.95238,0 41.90476,0 62.85714,0 10.47619,0 20.95239,0 31.42858,0 2.85714,0 5.71428,0 8.57142,0 2.85715,0 5.76977,0.56033 8.57143,0 2.08824,-0.41765 3.88818,-1.76148 5.71429,-2.85715 7.78013,-4.66808 11.03048,-7.15461 17.14286,-14.28571 3.099,-3.61551 5.47242,-7.81306 8.57142,-11.42857 20.36088,-20.36088 -1.62551,2.74617 14.28572,-17.14286 1.68276,-2.10346 4.09804,-3.55929 5.71428,-5.71429 1.27776,-1.70367 1.90477,-3.80952 2.85715,-5.71428 0.95238,-1.90476 2.34064,-3.64828 2.85714,-5.71429 0.46197,-1.84789 0,-3.80952 0,-5.71428 0,-2.85715 0,-5.71429 0,-8.57143 0,-9.52381 0,-19.04762 0,-28.57143 0,-13.33333 0,-26.66667 0,-40 0,-0.76016 0.47182,-8.33552 0,-8.57143 -0.82418,-0.41209 -15.31679,0 -17.14286,0 -1.90476,0 -3.80952,0 -5.71428,0 -1.90476,0 -4.08097,-0.97999 -5.71429,0 -3.46479,2.07888 -5.71428,5.71429 -8.57143,8.57143 -7.79183,7.79183 -11.03408,10.22596 -17.14285,20 -2.25736,3.61178 -3.45693,7.8168 -5.71429,11.42857 -2.5238,4.03809 -6.04762,7.39049 -8.57143,11.42857 -7.1261,11.40177 -12.11862,27.43942 -17.14286,40 -1.90476,4.76191 -3.80952,9.52381 -5.71428,14.28572 -1.90476,4.7619 -4.24056,9.37328 -5.71429,14.28571 -1.39542,4.65141 -1.80368,9.54515 -2.85714,14.28572 -0.85184,3.83326 -1.90476,7.61904 -2.85714,11.42857 -0.95238,3.80952 -1.47837,7.75182 -2.85715,11.42857 -1.49549,3.98799 -4.5442,7.33327 -5.71428,11.42857 -0.78492,2.74721 0.56033,5.76977 0,8.57143 -0.41765,2.08823 -2.34064,3.64828 -2.85714,5.71428 -0.46198,1.8479 0,3.80953 0,5.71429 0,6.66667 0,13.33333 0,20 0,21.90476 0,43.80952 0,65.71429 0,62.85714 0,125.71428 0,188.57142"
       id="path4068"
       inkscape:connector-curvature="0" />
    <path
       style="fill:none;fill-rule:evenodd;stroke:#000000;stroke-width:1px;stroke-linecap:butt;stroke-linejoin:miter;stroke-opacity:1"
       d="m 202.85714,738.07649 c 0,-3.80952 -1.20467,-7.81454 0,-11.42857 0.85184,-2.55551 3.80953,-3.80952 5.71429,-5.71429 3.80952,-3.80952 7.61905,-7.61904 11.42857,-11.42857 17.49581,-17.49581 -4.81871,3.61403 11.42857,-8.57143 5.69236,-4.26926 4.51274,-6.84247 11.42857,-8.57143 1.84789,-0.46197 3.90727,0.60234 5.71429,0 1.27775,-0.42591 1.57939,-2.43122 2.85714,-2.85714 2.57143,-0.85714 6,0.85714 8.57143,0 2.02031,-0.67343 3.69398,-2.18371 5.71429,-2.85714 1.84773,-0.61591 11.16599,0 14.28571,0 11.42857,0 22.85714,0 34.28571,0 7.61905,0 -0.95238,-0.95238 2.85715,2.85714 0.67343,0.67344 2.0053,-0.42592 2.85714,0 1.20468,0.60234 1.90476,1.90476 2.85714,2.85714 0.95238,0.95239 2.25481,1.65247 2.85715,2.85715 0.85183,1.70367 -0.85184,4.01061 0,5.71428 5.94537,11.89075 -0.19725,-3.05438 5.71428,2.85715 0.11498,0.11497 0,10.37932 0,11.42857 0,1.34713 -0.12949,14.15622 0,14.28571 0.67344,0.67344 1.90476,0 2.85714,0 0.95239,0 2.18371,0.67344 2.85715,0 3.01169,-3.01169 2.70259,-8.41688 5.71428,-11.42857 1.50585,-1.50585 4.53301,-1.08522 5.71429,-2.85714 1.05657,-1.58486 -0.60234,-3.90727 0,-5.71429 0.42592,-1.27775 2.2548,-1.65246 2.85714,-2.85714 0.85184,-1.70367 -0.85183,-4.01062 0,-5.71429 1.71429,-3.42857 6.85714,-5.14285 8.57143,-8.57143 0.42592,-0.85183 -0.42592,-2.0053 0,-2.85714 0.60234,-1.20468 1.90476,-1.90476 2.85714,-2.85714 0.95238,-0.95238 1.73648,-2.11003 2.85715,-2.85714 1.77192,-1.18129 3.69398,-2.18371 5.71428,-2.85715 0.90351,-0.30117 2.18371,0.67344 2.85714,0 5.91153,-5.91153 -9.0336,0.23109 2.85715,-5.71428 1.70367,-0.85184 4.36741,1.34687 5.71428,0 5.91153,-5.91153 -9.0336,0.23108 2.85715,-5.71429 0.85183,-0.42592 1.90476,0 2.85714,0 0.95238,0 1.90476,0 2.85714,0 4.76191,0 9.52381,0 14.28572,0 4.7619,0 9.52381,0 14.28571,0 0.95238,0 1.90476,0 2.85714,0 0.95238,0 2.00531,-0.42592 2.85715,0 1.20467,0.60234 2.2548,1.65247 2.85714,2.85714 0.42592,0.85184 -0.42592,2.00531 0,2.85715 0.60234,1.20467 2.2548,1.65246 2.85714,2.85714 0.42592,0.85184 -0.42592,2.00531 0,2.85714 0.60234,1.20468 2.25481,1.65247 2.85714,2.85715 0.42592,0.85183 -0.42591,2.0053 0,2.85714 0.60234,1.20468 2.25481,1.65246 2.85715,2.85714 0.42591,0.85184 -0.42592,2.00531 0,2.85714 0.60234,1.20468 2.2548,1.65247 2.85714,2.85715 0.56642,1.13283 -0.5841,7.98732 0,8.57143 0.67344,0.67343 2.18371,-0.67344 2.85714,0 0.67344,0.67343 0,1.90476 0,2.85714 0,6.66667 0,13.33333 0,20 0,0.95238 0,1.90476 0,2.85714 0,0.95238 -0.67343,2.18371 0,2.85714 0.67344,0.67344 1.90476,0 2.85715,0 0,0.95239 -0.67344,2.18371 0,2.85715 0.67343,0.67343 2.1837,-0.67344 2.85714,0 1.34687,1.34687 -0.85184,4.01061 0,5.71428 0.60234,1.20468 2.2548,1.65247 2.85714,2.85715 0.42592,0.85183 0,1.90476 0,2.85714 0,0.95238 0,1.90476 0,2.85714"
       id="path4070"
       inkscape:connector-curvature="0" />
  </g>
</svg>
