<?xml version="1.0" encoding="UTF-8" standalone="no"?>
<!-- Created with Inkscape (http://www.inkscape.org/) -->

<svg
   xmlns:dc="http://purl.org/dc/elements/1.1/"
   xmlns:cc="http://creativecommons.org/ns#"
   xmlns:rdf="http://www.w3.org/1999/02/22-rdf-syntax-ns#"
   xmlns:svg="http://www.w3.org/2000/svg"
   xmlns="http://www.w3.org/2000/svg"
   xmlns:sodipodi="http://sodipodi.sourceforge.net/DTD/sodipodi-0.dtd"
   xmlns:inkscape="http://www.inkscape.org/namespaces/inkscape"
   width="210mm"
   height="297mm"
   viewBox="0 0 744.09448819 1052.3622047"
   id="svg2"
   version="1.1"
   inkscape:version="0.91 r13725"
   sodipodi:docname="c.svg">
  <defs
     id="defs4" />
  <sodipodi:namedview
     id="base"
     pagecolor="#ffffff"
     bordercolor="#666666"
     borderopacity="1.0"
     inkscape:pageopacity="0.0"
     inkscape:pageshadow="2"
     inkscape:zoom="0.35"
     inkscape:cx="380.71429"
     inkscape:cy="520"
     inkscape:document-units="px"
     inkscape:current-layer="layer1"
     showgrid="false"
     inkscape:window-width="1920"
     inkscape:window-height="1051"
     inkscape:window-x="0"
     inkscape:window-y="0"
     inkscape:window-maximized="1" />
  <metadata
     id="metadata7">
    <rdf:RDF>
      <cc:Work
         rdf:about="">
        <dc:format>image/svg+xml</dc:format>
        <dc:type
           rdf:resource="http://purl.org/dc/dcmitype/StillImage" />
        <dc:title></dc:title>
      </cc:Work>
    </rdf:RDF>
  </metadata>
  <g
     inkscape:label="Layer 1"
     inkscape:groupmode="layer"
     id="layer1">
    <flowRoot
       xml:space="preserve"
       id="flowRoot3485"
       style="fill:black;stroke:none;stroke-opacity:1;stroke-width:1px;stroke-linejoin:miter;stroke-linecap:butt;fill-opacity:1;font-family:'DejaVu Sans';font-style:normal;font-weight:normal;font-size:7.5px;line-height:125%;letter-spacing:0px;word-spacing:0px;text-anchor:start;text-align:start;writing-mode:lr;-inkscape-font-specification:'DejaVu Sans, Normal';font-stretch:normal;font-variant:normal"><flowRegion
         id="flowRegion3487"><rect
           id="rect3489"
           width="80"
           height="105.71429"
           x="137.14285"
           y="323.79077" /></flowRegion><flowPara
         id="flowPara3491"></flowPara></flowRoot>    <path
       style="fill:none;fill-rule:evenodd;stroke:#000000;stroke-width:1px;stroke-linecap:butt;stroke-linejoin:miter;stroke-opacity:1"
       d="m 282.85714,335.21935 c -1.91901,0.47975 -13.01097,4.23443 -17.14285,2.85714 -1.27776,-0.42592 -1.73648,-2.11003 -2.85715,-2.85714 -1.77192,-1.18129 -4.20844,-1.3513 -5.71428,-2.85715 -0.67344,-0.67343 0.30117,-1.95363 0,-2.85714 -0.95238,-1.90476 -1.90476,-3.80952 -2.85715,-5.71428 0,-0.95238 0.30117,-1.95364 0,-2.85715 -0.67343,-2.0203 -2.34064,-3.64828 -2.85714,-5.71428 -0.55726,-2.22907 0,-13.80808 0,-17.14286 0,-0.76016 -0.47182,-8.33552 0,-8.57143 1.70367,-0.85183 3.80953,0 5.71429,0 2.85714,0 5.71428,0 8.57143,0 7.61904,0 15.23809,0 22.85714,0 15.28988,0 -6.47118,0.60234 14.28571,-2.85714 4.69712,-0.78285 9.61629,0.93389 14.28572,0 5.90641,-1.18128 11.20142,-4.72405 17.14285,-5.71429 2.81827,-0.46971 5.86091,0.90351 8.57143,0 3.25765,-1.08588 5.5001,-4.17861 8.57143,-5.71428 5.76215,-2.88108 9.29272,-1.96954 14.28572,-5.71429 2.15499,-1.61624 3.55929,-4.09804 5.71428,-5.71428 3.40734,-2.55551 8.41688,-2.7026 11.42857,-5.71429 1.50585,-1.50585 1.3513,-4.20844 2.85715,-5.71429 0.67343,-0.67343 2.1837,0.67344 2.85714,0 0.67343,-0.67343 -0.42592,-2.0053 0,-2.85714 5.94537,-11.89074 -0.19725,3.05439 5.71428,-2.85714 0.67344,-0.67344 0,-1.90476 0,-2.85714 0.95239,0 2.00531,0.42591 2.85715,0 1.20467,-0.60234 1.90476,-1.90477 2.85714,-2.85715 0.95238,-0.95238 2.2548,-1.65246 2.85714,-2.85714 0.42592,-0.85183 -0.67343,-2.18371 0,-2.85714 0.67344,-0.67344 2.18371,0.67343 2.85715,0 0.67343,-0.67344 -0.67344,-2.18371 0,-2.85715 0.67343,-0.67343 1.90476,0 2.85714,0 0.95238,0 2.18371,-0.67343 2.85714,0 0.0713,0.0713 0,13.21235 0,14.28572 0,20 0,40 0,60 0,136.19048 0,272.38095 0,408.57143 0,44.7619 0,89.52381 0,134.28571 0,9.52381 0,19.04762 0,28.57143 0,1.90476 0,3.80952 0,5.71429 0,0.95238 0.95238,2.85714 0,2.85714 -0.95238,0 0,-1.90476 0,-2.85714 0,-3.80953 0,-7.61905 0,-11.42858 0,-5.71428 0,-11.42857 0,-17.14285 0,-1.49406 -0.37563,-10.67731 0,-11.42857 0.60234,-1.20468 1.65247,-2.25481 2.85714,-2.85715 0.85184,-0.42591 2.18371,0.67344 2.85715,0 0.67343,-0.67343 -0.67344,-2.1837 0,-2.85714 1.50584,-1.50585 3.94236,-1.67586 5.71428,-2.85714 1.12067,-0.74711 1.65247,-2.25481 2.85715,-2.85715 0.85183,-0.42591 2.0053,0.42592 2.85714,0 1.20468,-0.60233 1.57939,-2.43122 2.85714,-2.85714 2.57143,-0.85714 6,0.85714 8.57143,0 2.02031,-0.67343 3.64828,-2.34064 5.71429,-2.85714 1.84789,-0.46197 3.80952,0 5.71428,0 4.54255,0 13.39234,0.7501 17.14286,0 2.08823,-0.41765 3.62605,-2.4395 5.71428,-2.85714 4.66944,-0.93389 9.66599,1.15493 14.28572,0 2.066,-0.5165 3.64828,-2.34065 5.71428,-2.85715 2.10543,-0.52635 12.61179,0.83697 14.28572,0 1.20468,-0.60234 1.65246,-2.2548 2.85714,-2.85714 3.94102,-1.97051 2.55564,3.46016 5.71429,-2.85714 0.42591,-0.85184 -0.67344,-2.18371 0,-2.85715 0.67343,-0.67343 2.1837,0.67344 2.85714,0 1.34687,-1.34687 -0.85184,-4.01061 0,-5.71428 0.60234,-1.20468 2.2548,-1.65247 2.85714,-2.85714 1.90476,-3.80953 -2.85714,-2.85715 2.85715,-2.85715"
       id="path4022"
       inkscape:connector-curvature="0" />
  </g>
</svg>
