<?xml version="1.0" encoding="UTF-8" standalone="no"?>
<!-- Created with Inkscape (http://www.inkscape.org/) -->

<svg
   xmlns:dc="http://purl.org/dc/elements/1.1/"
   xmlns:cc="http://creativecommons.org/ns#"
   xmlns:rdf="http://www.w3.org/1999/02/22-rdf-syntax-ns#"
   xmlns:svg="http://www.w3.org/2000/svg"
   xmlns="http://www.w3.org/2000/svg"
   xmlns:sodipodi="http://sodipodi.sourceforge.net/DTD/sodipodi-0.dtd"
   xmlns:inkscape="http://www.inkscape.org/namespaces/inkscape"
   width="210mm"
   height="297mm"
   viewBox="0 0 744.09448819 1052.3622047"
   id="svg2"
   version="1.1"
   inkscape:version="0.91 r13725"
   sodipodi:docname="d.svg">
  <defs
     id="defs4" />
  <sodipodi:namedview
     id="base"
     pagecolor="#ffffff"
     bordercolor="#666666"
     borderopacity="1.0"
     inkscape:pageopacity="0.0"
     inkscape:pageshadow="2"
     inkscape:zoom="0.35"
     inkscape:cx="380.71429"
     inkscape:cy="520"
     inkscape:document-units="px"
     inkscape:current-layer="layer1"
     showgrid="false"
     inkscape:window-width="1920"
     inkscape:window-height="1051"
     inkscape:window-x="0"
     inkscape:window-y="0"
     inkscape:window-maximized="1" />
  <metadata
     id="metadata7">
    <rdf:RDF>
      <cc:Work
         rdf:about="">
        <dc:format>image/svg+xml</dc:format>
        <dc:type
           rdf:resource="http://purl.org/dc/dcmitype/StillImage" />
        <dc:title></dc:title>
      </cc:Work>
    </rdf:RDF>
  </metadata>
  <g
     inkscape:label="Layer 1"
     inkscape:groupmode="layer"
     id="layer1">
    <flowRoot
       xml:space="preserve"
       id="flowRoot3485"
       style="fill:black;stroke:none;stroke-opacity:1;stroke-width:1px;stroke-linejoin:miter;stroke-linecap:butt;fill-opacity:1;font-family:'DejaVu Sans';font-style:normal;font-weight:normal;font-size:7.5px;line-height:125%;letter-spacing:0px;word-spacing:0px;text-anchor:start;text-align:start;writing-mode:lr;-inkscape-font-specification:'DejaVu Sans, Normal';font-stretch:normal;font-variant:normal"><flowRegion
         id="flowRegion3487"><rect
           id="rect3489"
           width="80"
           height="105.71429"
           x="137.14285"
           y="323.79077" /></flowRegion><flowPara
         id="flowPara3491"></flowPara></flowRoot>    <path
       style="fill:none;fill-rule:evenodd;stroke:#000000;stroke-width:1px;stroke-linecap:butt;stroke-linejoin:miter;stroke-opacity:1"
       d="m 228.57143,698.07649 c -11.42857,0 -22.85714,0 -34.28572,0 -13.33333,0 -26.66666,0 -40,0 -2.97121,0 -14.89538,-0.56187 -17.14285,0 -2.06601,0.5165 -4.20844,1.3513 -5.71429,2.85714 -1.50585,1.50585 -1.67586,3.94236 -2.85714,5.71429 -0.74711,1.12066 -1.90476,1.90476 -2.85714,2.85714 -1.90477,2.85714 -3.94758,5.62692 -5.71429,8.57143 -1.09566,1.82611 -1.57939,4.01062 -2.85714,5.71429 -1.61625,2.15499 -4.32837,3.40442 -5.71429,5.71428 -1.5495,2.58251 -1.73863,5.77514 -2.85714,8.57143 -0.95238,1.90476 -1.90476,3.80952 -2.85714,5.71429 0,0.95238 0.30117,1.95363 0,2.85714 -0.67344,2.0203 -2.18371,3.69398 -2.85715,5.71428 -0.58104,1.74312 0,14.9362 0,17.14286 0,4.76191 0,9.52381 0,14.28572 0,0.95238 -0.85183,2.43122 0,2.85714 1.70367,0.85183 3.8664,-0.46197 5.71429,0 2.066,0.5165 3.64828,2.34064 5.71428,2.85714 2.77184,0.69296 5.71429,0 8.57143,0 6.66667,0 13.33334,0 20,0 2.48879,0 16.08828,0.52729 17.14286,0 3.49557,-1.74778 3.62631,-5.78746 5.71429,-8.57143 1.61624,-2.15499 4.09804,-3.55929 5.71428,-5.71428 1.27775,-1.70367 1.57939,-4.01062 2.85714,-5.71429 3.23249,-4.30998 8.19609,-7.11859 11.42858,-11.42857 1.27775,-1.70367 1.35129,-4.20844 2.85714,-5.71429 1.50585,-1.50584 4.20844,-1.35129 5.71428,-2.85714 1.50585,-1.50584 1.67586,-3.94236 2.85715,-5.71428 0.74711,-1.12067 2.11003,-1.73648 2.85714,-2.85715 1.18128,-1.77192 1.3513,-4.20844 2.85714,-5.71428 1.50585,-1.50585 4.20844,-1.3513 5.71429,-2.85715 1.50585,-1.50584 1.67586,-3.94236 2.85714,-5.71428 0.74711,-1.12066 2.11004,-1.73648 2.85714,-2.85714 1.18129,-1.77193 1.67586,-3.94236 2.85715,-5.71429 2.85714,-4.28571 5.71428,-2.85714 8.57143,-8.57143 1.7561,-3.51221 0.90892,-8.01918 2.85714,-11.42857 2.0047,-3.50823 6.22287,-5.28345 8.57143,-8.57143 2.47559,-3.46583 3.35172,-7.88472 5.71428,-11.42857 1.49422,-2.24133 4.32837,-3.40442 5.71429,-5.71429 1.5495,-2.5825 1.73863,-5.77514 2.85714,-8.57142 2.76887,-6.92218 9.78768,-13.43644 11.42857,-20 0.46198,-1.84789 -0.46197,-3.8664 0,-5.71429 3.80953,-15.23809 0.95238,2.85714 8.57143,-8.57143 1.05657,-1.58486 -0.46197,-3.86639 0,-5.71428 0.5165,-2.06601 1.90476,-3.80953 2.85714,-5.71429 0.95239,-1.90476 1.67586,-3.94236 2.85715,-5.71429 4.51263,-6.76894 4.07983,2.04622 8.57143,-11.42857 0.9035,-2.71052 -0.78492,-5.82421 0,-8.57143 2.34017,-8.1906 8.73483,-14.77592 11.42857,-22.85714 1.53567,-4.607 1.32147,-9.67871 2.85714,-14.28571 1.34687,-4.04061 4.21879,-7.44058 5.71429,-11.42857 2.75756,-7.3535 3.23078,-15.40663 5.71428,-22.85715 0.67344,-2.0203 2.06623,-3.73701 2.85714,-5.71428 1.11852,-2.79629 1.73863,-5.77514 2.85715,-8.57143 0.79091,-1.97727 2.1837,-3.69398 2.85714,-5.71429 0.85714,-2.57143 -0.85714,-6 0,-8.57143 0.85184,-2.5555 4.86245,-3.15877 5.71429,-5.71428 0.4356,-1.30682 -0.63569,-10.15721 0,-11.42857 0.60233,-1.20468 2.11003,-1.73648 2.85714,-2.85715 1.21385,-1.82077 8.10811,-15.28959 8.57143,-17.14285 0.46197,-1.84789 0,-3.80953 0,-5.71429 0,-0.95238 -0.42592,-2.00531 0,-2.85714 0.60234,-1.20468 2.43122,-1.57939 2.85714,-2.85714 0.60234,-1.80702 -0.60234,-3.90727 0,-5.71429 0.42592,-1.27775 2.2548,-1.65247 2.85714,-2.85714 0.42592,-0.85184 -0.30117,-1.95364 0,-2.85715 0.67344,-2.0203 2.18371,-3.69398 2.85715,-5.71428 0.85714,-2.57143 -0.85715,-6 0,-8.57143 3.53057,-10.59173 2.85714,3.48272 2.85714,-5.71429 0,-1.49405 -0.37563,-10.67731 0,-11.42857 0.60234,-1.20467 2.2548,-1.65246 2.85714,-2.85714 0.42592,-0.85183 -0.42592,-2.00531 0,-2.85714 0.60234,-1.20468 2.25481,-1.65247 2.85714,-2.85715 1.14286,-2.28571 -1.14285,-6.28571 0,-8.57142 0.60234,-1.20468 2.25481,-1.65247 2.85715,-2.85715 0.77498,-1.54996 -0.78178,-10.64679 0,-11.42857 0.67343,-0.67343 2.43122,-0.85183 2.85714,0 3.78109,7.56218 2.85714,14.83819 2.85714,22.85714 0,5.71429 0,11.42858 0,17.14286 0,2.85714 -0.56033,5.76977 0,8.57143 0.41765,2.08823 2.50704,3.61367 2.85715,5.71429 0.62628,3.75769 -0.53875,7.65733 0,11.42857 0.42591,2.98142 1.90476,5.71428 2.85714,8.57143 0,3.80952 -0.42069,7.64234 0,11.42857 0.53628,4.8265 1.90476,9.52381 2.85714,14.28571 0.95238,4.76191 1.80368,9.54515 2.85714,14.28572 0.85184,3.83326 2.42351,7.52582 2.85715,11.42857 0.52586,4.73278 0,9.52381 0,14.28571 0,3.80953 0,7.61905 0,11.42857 0,2.85715 -0.56033,5.76977 0,8.57143 0.41764,2.08824 2.43949,3.62605 2.85714,5.71429 0.56033,2.80166 0,5.71428 0,8.57143 0,2.85714 0,5.71428 0,8.57142 0,1.90477 -0.46197,3.8664 0,5.71429 0.5165,2.066 2.34064,3.64828 2.85714,5.71429 0.46198,1.84789 -0.46197,3.86639 0,5.71428 0.5165,2.06601 2.4395,3.62605 2.85715,5.71429 0.93388,4.66943 -1.15494,9.66599 0,14.28571 0.5165,2.06601 2.43949,3.62605 2.85714,5.71429 0.56033,2.80166 -0.69296,5.79959 0,8.57143 0.32666,1.30665 2.53048,1.55048 2.85714,2.85714 1.12045,4.48179 -1.12045,9.80392 0,14.28571 0.5165,2.06601 2.34064,3.64828 2.85714,5.71429 1.03455,4.13818 -0.82679,13.00887 0,17.14286 0.41765,2.08823 2.34065,3.64828 2.85715,5.71428 0.92394,3.69578 -0.92395,7.73279 0,11.42857 0.5165,2.06601 2.1837,3.69398 2.85714,5.71429 0.30117,0.90351 -0.30117,1.95363 0,2.85714 0.67344,2.02031 1.90476,3.80953 2.85714,5.71429 0.95238,1.90476 1.67586,3.94236 2.85715,5.71428 0.7471,1.12067 2.43122,1.57939 2.85714,2.85715 0.60234,1.80701 -0.60234,3.90727 0,5.71428 0.42592,1.27775 2.11003,1.73648 2.85714,2.85714 1.18128,1.77193 1.90476,3.80953 2.85714,5.71429 1.90477,3.80952 3.80953,7.61905 5.71429,11.42857 0.95238,1.90476 1.90476,3.80953 2.85714,5.71429 0.95238,1.90476 2.34064,3.64828 2.85715,5.71428 0,13.00653 -1.34687,0.16341 2.85714,8.57143 0.85183,1.70367 -1.34687,4.36742 0,5.71429 1.50585,1.50584 4.533,1.08522 5.71428,2.85714 1.05658,1.58486 -0.60233,3.90727 0,5.71429 0.42592,1.27775 1.90477,1.90476 2.85715,2.85714 0,2.85714 -0.69296,5.79959 0,8.57143 0.32666,1.30665 2.11003,1.73648 2.85714,2.85714 1.18128,1.77193 2.18371,3.69398 2.85714,5.71429 0.30117,0.9035 -0.30117,1.95363 0,2.85714 0.67344,2.0203 2.18371,3.69398 2.85715,5.71428 0.66967,2.00903 -0.78318,13.50255 0,14.28572 3.80952,3.80952 2.85714,-4.76191 2.85714,2.85714"
       id="path3662"
       inkscape:connector-curvature="0" />
  </g>
</svg>
