<?xml version="1.0" encoding="UTF-8" standalone="no"?>
<!-- Created with Inkscape (http://www.inkscape.org/) -->

<svg
   xmlns:dc="http://purl.org/dc/elements/1.1/"
   xmlns:cc="http://creativecommons.org/ns#"
   xmlns:rdf="http://www.w3.org/1999/02/22-rdf-syntax-ns#"
   xmlns:svg="http://www.w3.org/2000/svg"
   xmlns="http://www.w3.org/2000/svg"
   xmlns:sodipodi="http://sodipodi.sourceforge.net/DTD/sodipodi-0.dtd"
   xmlns:inkscape="http://www.inkscape.org/namespaces/inkscape"
   width="210mm"
   height="297mm"
   viewBox="0 0 744.09448819 1052.3622047"
   id="svg2"
   version="1.1"
   inkscape:version="0.91 r13725"
   sodipodi:docname="dot.svg">
  <defs
     id="defs4" />
  <sodipodi:namedview
     id="base"
     pagecolor="#ffffff"
     bordercolor="#666666"
     borderopacity="1.0"
     inkscape:pageopacity="0.0"
     inkscape:pageshadow="2"
     inkscape:zoom="0.35"
     inkscape:cx="380.71429"
     inkscape:cy="520"
     inkscape:document-units="px"
     inkscape:current-layer="layer1"
     showgrid="false"
     inkscape:window-width="1920"
     inkscape:window-height="1051"
     inkscape:window-x="0"
     inkscape:window-y="0"
     inkscape:window-maximized="1" />
  <metadata
     id="metadata7">
    <rdf:RDF>
      <cc:Work
         rdf:about="">
        <dc:format>image/svg+xml</dc:format>
        <dc:type
           rdf:resource="http://purl.org/dc/dcmitype/StillImage" />
        <dc:title></dc:title>
      </cc:Work>
    </rdf:RDF>
  </metadata>
  <g
     inkscape:label="Layer 1"
     inkscape:groupmode="layer"
     id="layer1">
    <flowRoot
       xml:space="preserve"
       id="flowRoot3485"
       style="fill:black;stroke:none;stroke-opacity:1;stroke-width:1px;stroke-linejoin:miter;stroke-linecap:butt;fill-opacity:1;font-family:'DejaVu Sans';font-style:normal;font-weight:normal;font-size:7.5px;line-height:125%;letter-spacing:0px;word-spacing:0px;text-anchor:start;text-align:start;writing-mode:lr;-inkscape-font-specification:'DejaVu Sans, Normal';font-stretch:normal;font-variant:normal"><flowRegion
         id="flowRegion3487"><rect
           id="rect3489"
           width="80"
           height="105.71429"
           x="137.14285"
           y="323.79077" /></flowRegion><flowPara
         id="flowPara3491"></flowPara></flowRoot>    <path
       style="fill:none;fill-rule:evenodd;stroke:#000000;stroke-width:1px;stroke-linecap:butt;stroke-linejoin:miter;stroke-opacity:1"
       d="m 128.57143,235.21935 c 0,19.04762 0,38.09524 0,57.14285 0,1.98726 -0.51662,13.25248 0,14.28572 0.60234,1.20468 1.90476,1.90476 2.85714,2.85714 0.95238,0.95238 1.57939,2.43123 2.85714,2.85714 1.80702,0.60234 3.90727,-0.60233 5.71429,0 1.27775,0.42592 1.57939,2.43123 2.85714,2.85715 13.00653,0 0.16341,-1.34687 8.57143,2.85714 0.85184,0.42592 1.90476,0 2.85714,0 1.90477,0 3.80953,0 5.71429,0 7.61905,0 15.2381,0 22.85714,0 6.66667,0 13.33334,0 20,0 1.90476,0 3.90727,0.60234 5.71429,0 2.0203,-0.67343 3.69398,-2.18371 5.71428,-2.85714 8.50524,-2.83508 -5.8623,6.76534 8.57143,-2.85715 2.24133,-1.49421 3.47296,-4.22006 5.71429,-5.71428 1.77192,-1.18128 3.69398,-2.18371 5.71428,-2.85714 0.90351,-0.30117 2.18371,0.67343 2.85715,0 1.75021,-1.75022 2.43233,-7.47745 5.71428,-8.57143 1.80702,-0.60234 3.90727,0.60234 5.71429,0 5.68557,-1.89519 1.33333,-2.66667 2.85714,-5.71429 1.71429,-3.42857 6.85714,-5.14286 8.57143,-8.57143 0.42592,-0.85183 -0.42592,-2.0053 0,-2.85714 0.60234,-1.20468 2.2548,-1.65247 2.85714,-2.85714 0.42592,-0.85184 -0.42591,-2.00531 0,-2.85715 0.60234,-1.20467 2.25481,-1.65246 2.85715,-2.85714 0.85183,-1.70367 -1.34687,-4.36741 0,-5.71428 0.67343,-0.67344 2.1837,0.67343 2.85714,0 0.67343,-0.67344 -0.67344,-2.18371 0,-2.85715 1.50585,-1.50584 4.20844,-1.35129 5.71428,-2.85714 0.67344,-0.67343 -0.30117,-1.95363 0,-2.85714 6.8985,-20.69548 -0.82372,4.50459 5.71429,-8.57143 0,-7.61905 -0.95238,0.95238 2.85714,-2.85714 1.34687,-1.34687 -1.90476,-5.71429 0,-5.71429 0.95238,0 0,1.90476 0,2.85714 0,1.90477 0,3.80953 0,5.71429 0,9.52381 0,19.04762 0,28.57143 0,14.47869 -0.85183,-3.40734 2.85715,11.42857 0.46197,1.84789 -0.60234,3.90727 0,5.71428 0.42591,1.27776 2.2548,1.65247 2.85714,2.85715 0.85183,1.70367 -0.85184,4.01061 0,5.71428 0.60234,1.20468 2.43122,1.57939 2.85714,2.85715 0.60234,1.80701 -0.60234,3.90727 0,5.71428 0.42592,1.27775 2.25481,1.65247 2.85714,2.85714 0.85184,1.70368 -1.34687,4.36742 0,5.71429 0.67344,0.67344 2.43123,-0.85183 2.85715,0 0.85183,1.70367 -0.60234,3.90727 0,5.71429 0.42591,1.27775 2.2548,1.65246 2.85714,2.85714 0.42592,0.85183 -0.42592,2.00531 0,2.85714 0.60234,1.20468 1.90476,1.90476 2.85714,2.85714 0.95238,0.95239 1.65247,2.25481 2.85715,2.85715 0.85183,0.42592 2.1837,-0.67344 2.85714,0 0.67343,0.67343 -0.85184,2.43122 0,2.85714 13.00653,0 0.1634,-1.34687 8.57143,2.85714 0.85183,0.42592 1.90476,0 2.85714,0 1.90476,0 3.80952,0 5.71429,0 4.7619,0 9.52381,0 14.28571,0 5.71429,0 11.42857,0 17.14286,0 1.28673,0 7.7019,0.43477 8.57143,0 1.18214,-0.59107 7.76407,-7.36039 8.57142,-8.57143 1.18129,-1.77192 1.67586,-3.94236 2.85715,-5.71428 1.49422,-2.24133 4.50961,-3.30493 5.71428,-5.71429 0.42592,-0.85183 -0.67343,-2.1837 0,-2.85714 1.50585,-1.50585 4.20844,-1.3513 5.71429,-2.85714 0.67343,-0.67344 -0.30117,-1.95364 0,-2.85715 0.67343,-2.0203 1.67586,-3.94236 2.85714,-5.71428 4.35868,-6.53801 2.26163,1.78654 5.71429,-8.57143 0.30117,-0.90351 -0.42592,-2.00531 0,-2.85714 0.60234,-1.20468 2.2548,-1.65247 2.85714,-2.85715 0.42592,-0.85183 -0.42592,-2.0053 0,-2.85714 5.94537,-11.89074 -0.19724,3.05439 5.71429,-2.85714 0.67343,-0.67344 -0.42592,-2.00531 0,-2.85714 0.60233,-1.20468 2.2548,-1.65247 2.85714,-2.85715 0.42592,-0.85183 -0.67344,-2.1837 0,-2.85714 1.50585,-1.50585 4.20844,-1.3513 5.71428,-2.85714 0.67344,-0.67344 -0.42591,-2.00531 0,-2.85715 1.71429,-3.42857 6.85715,-5.14285 8.57143,-8.57142 0.42592,-0.85184 -0.42591,-2.00531 0,-2.85715 0.60234,-1.20467 2.25481,-1.65246 2.85715,-2.85714 0.42591,-0.85183 -0.67344,-2.18371 0,-2.85714 0.67343,-0.67344 2.1837,0.67343 2.85714,0 1.34687,-1.34687 -1.34687,-4.36742 0,-5.71429 0.67343,-0.67343 2.18371,0.67344 2.85714,0 1.34687,-1.34687 -1.34687,-4.36741 0,-5.71428 0.67344,-0.67344 2.18371,0.67343 2.85714,0 0.67344,-0.67344 -0.67343,-2.18371 0,-2.85715 0.67344,-0.67343 2.18371,0.67344 2.85715,0 0.67343,-0.67343 0,-1.90476 0,-2.85714 0,-0.95238 0,-1.90476 0,-2.85714"
       id="path4222"
       inkscape:connector-curvature="0" />
    <path
       style="fill:none;fill-rule:evenodd;stroke:#000000;stroke-width:1px;stroke-linecap:butt;stroke-linejoin:miter;stroke-opacity:1"
       d="m 274.28571,238.07649 c 2.41554,9.66216 4.93591,18.45252 5.71429,28.57143 0.51131,6.64703 0,13.33333 0,20 0,7.61905 0,15.23809 0,22.85714 0,28.57143 0,57.14286 0,85.71429 0,35.23809 0,70.47619 0,105.71428 0,19.04762 0,38.09524 0,57.14286 0,18.09524 0,36.19048 0,54.28571 0,0.69294 0.0919,8.47955 0,8.57143 -1.50585,1.50585 -4.20844,1.3513 -5.71429,2.85715 -0.67343,0.67343 0.42592,2.0053 0,2.85714 -0.60233,1.20468 -1.90476,1.90476 -2.85714,2.85714 -0.95238,0.95238 -1.65246,2.25481 -2.85714,2.85714 -0.85184,0.42592 -2.18371,-0.67343 -2.85714,0 -0.67344,0.67344 0.42591,2.00531 0,2.85715 -3.15865,6.3173 -1.77327,0.88663 -5.71429,2.85714 -6.3173,3.15865 -0.88663,1.77327 -2.85714,5.71429 -0.60234,1.20467 -1.90476,1.90476 -2.85715,2.85714 -0.95238,0.95238 -1.65246,2.2548 -2.85714,2.85714 -0.85183,0.42592 -2.18371,-0.67343 -2.85714,0 -0.67344,0.67344 0.42592,2.00531 0,2.85714 -0.60234,1.20468 -2.25481,1.65247 -2.85714,2.85715 -0.42592,0.85183 0.67343,2.18371 0,2.85714 -0.27733,0.27732 -13.19694,0 -14.28572,0 -2.69096,0 -12.66039,0.54177 -14.28571,0 -1.27776,-0.42592 -2.25481,-1.65247 -2.85715,-2.85714 -1.34687,-2.69374 -1.73862,-5.77514 -2.85714,-8.57143 -0.79091,-1.97727 -2.34064,-3.64828 -2.85714,-5.71429 -0.46197,-1.84789 0,-3.80952 0,-5.71428 0,-1.90476 0,-3.80953 0,-5.71429 0,-5.71428 0,-11.42857 0,-17.14286 0,-5.82409 -1.56586,-15.577 2.85714,-20 1.50585,-1.50584 4.01062,-1.57939 5.71429,-2.85714 2.15499,-1.61624 3.61083,-4.03152 5.71428,-5.71428 3.34049,-5.18502 9.84309,-5.23946 14.28572,-8.57143 3.23249,-2.42437 5.20943,-6.3301 8.57143,-8.57143 1.77192,-1.18128 4.20843,-1.3513 5.71428,-2.85714 1.50585,-1.50585 1.3513,-4.20844 2.85714,-5.71429 1.50585,-1.50585 4.01062,-1.57939 5.71429,-2.85714 2.15499,-1.61625 3.80952,-3.80953 5.71429,-5.71429 2.82842,-2.82843 11.45728,-11.45729 14.28571,-14.28571 1.90476,-1.90476 3.55929,-4.09804 5.71429,-5.71429 1.70367,-1.27775 3.94236,-1.67586 5.71428,-2.85714 1.12067,-0.74711 1.90476,-1.90476 2.85714,-2.85714 2.85715,-2.85715 5.71429,-5.71429 8.57143,-8.57143 0.95238,-0.95238 1.57939,-2.43123 2.85715,-2.85715 1.80701,-0.60233 3.90727,0.60234 5.71428,0 1.30429,-0.43476 7.28469,-7.28469 8.57143,-8.57142 12.35797,-12.35798 -0.75689,-0.44779 11.42857,-8.57143 1.12067,-0.74711 1.65247,-2.25481 2.85714,-2.85715 0.85184,-0.42591 2.18371,0.67344 2.85715,0 0.67343,-0.67343 -0.67344,-2.1837 0,-2.85714 0.67343,-0.67343 2.0053,0.42592 2.85714,0 7.06116,-3.53058 -0.98622,-2.85714 5.71429,-2.85714"
       id="path4224"
       inkscape:connector-curvature="0" />
  </g>
</svg>
