<?xml version="1.0" encoding="UTF-8" standalone="no"?>
<!-- Created with Inkscape (http://www.inkscape.org/) -->

<svg
   xmlns:dc="http://purl.org/dc/elements/1.1/"
   xmlns:cc="http://creativecommons.org/ns#"
   xmlns:rdf="http://www.w3.org/1999/02/22-rdf-syntax-ns#"
   xmlns:svg="http://www.w3.org/2000/svg"
   xmlns="http://www.w3.org/2000/svg"
   xmlns:sodipodi="http://sodipodi.sourceforge.net/DTD/sodipodi-0.dtd"
   xmlns:inkscape="http://www.inkscape.org/namespaces/inkscape"
   width="210mm"
   height="297mm"
   viewBox="0 0 744.09448819 1052.3622047"
   id="svg2"
   version="1.1"
   inkscape:version="0.91 r13725"
   sodipodi:docname="f.svg">
  <defs
     id="defs4" />
  <sodipodi:namedview
     id="base"
     pagecolor="#ffffff"
     bordercolor="#666666"
     borderopacity="1.0"
     inkscape:pageopacity="0.0"
     inkscape:pageshadow="2"
     inkscape:zoom="0.35"
     inkscape:cx="380.71429"
     inkscape:cy="520"
     inkscape:document-units="px"
     inkscape:current-layer="layer1"
     showgrid="false"
     inkscape:window-width="1920"
     inkscape:window-height="1051"
     inkscape:window-x="0"
     inkscape:window-y="0"
     inkscape:window-maximized="1" />
  <metadata
     id="metadata7">
    <rdf:RDF>
      <cc:Work
         rdf:about="">
        <dc:format>image/svg+xml</dc:format>
        <dc:type
           rdf:resource="http://purl.org/dc/dcmitype/StillImage" />
        <dc:title></dc:title>
      </cc:Work>
    </rdf:RDF>
  </metadata>
  <g
     inkscape:label="Layer 1"
     inkscape:groupmode="layer"
     id="layer1">
    <flowRoot
       xml:space="preserve"
       id="flowRoot3485"
       style="fill:black;stroke:none;stroke-opacity:1;stroke-width:1px;stroke-linejoin:miter;stroke-linecap:butt;fill-opacity:1;font-family:'DejaVu Sans';font-style:normal;font-weight:normal;font-size:7.5px;line-height:125%;letter-spacing:0px;word-spacing:0px;text-anchor:start;text-align:start;writing-mode:lr;-inkscape-font-specification:'DejaVu Sans, Normal';font-stretch:normal;font-variant:normal"><flowRegion
         id="flowRegion3487"><rect
           id="rect3489"
           width="80"
           height="105.71429"
           x="137.14285"
           y="323.79077" /></flowRegion><flowPara
         id="flowPara3491"></flowPara></flowRoot>    <path
       style="fill:none;fill-rule:evenodd;stroke:#000000;stroke-width:1px;stroke-linecap:butt;stroke-linejoin:miter;stroke-opacity:1"
       d="m 340,643.79078 c -33.69631,0 11.17265,-0.92395 -22.85714,2.85714 -4.73278,0.52586 -9.61629,-0.93389 -14.28572,0 -5.02913,1.00583 -9.42017,4.09244 -14.28571,5.71428 -9.64321,3.21441 -22.38624,4.05027 -31.42857,8.57143 -3.07134,1.53567 -5.62692,3.94758 -8.57143,5.71429 -1.82611,1.09566 -3.94236,1.67586 -5.71429,2.85714 -1.12066,0.74711 -1.73648,2.11004 -2.85714,2.85714 0.32537,5.41265 -6.66667,1.90477 -8.57143,2.85715 -5.01367,2.50683 -5.52791,10.22769 -8.57143,14.28571 -9.41265,12.5502 -3.1085,-2.10305 -8.57143,14.28572 -0.95238,2.85714 -1.73862,5.77514 -2.85714,8.57142 -0.79091,1.97728 -2.18371,3.69399 -2.85714,5.71429 -0.60234,1.80702 0.85183,4.01062 0,5.71429 -0.60234,1.20467 -2.25481,1.65246 -2.85714,2.85714 -0.61012,1.22024 0,13.15625 0,14.28571 0,0.76016 -0.47183,8.33552 0,8.57143 1.70367,0.85184 3.80952,0 5.71428,0 5.71429,0 11.42857,0 17.14286,0 6.66667,0 13.33333,0 20,0 1.90476,0 3.80952,0 5.71428,0 0.95239,0 1.95364,0.30117 2.85715,0 10.35797,-3.45266 2.03342,-1.35561 8.57143,-5.71428 1.77192,-1.18129 3.94236,-1.67586 5.71428,-2.85715 1.12067,-0.74711 1.73648,-2.11003 2.85714,-2.85714 1.77193,-1.18128 4.20844,-1.3513 5.71429,-2.85714 1.50585,-1.50585 1.67586,-3.94236 2.85714,-5.71429 1.78251,-2.67375 9.59875,-9.59874 11.42857,-11.42857 2.85715,-2.85714 5.71429,-5.71429 8.57143,-8.57143 0.95238,-0.95238 2.11004,-1.73648 2.85715,-2.85714 1.18128,-1.77193 1.67586,-3.94236 2.85714,-5.71429 0.74711,-1.12066 2.11003,-1.73648 2.85714,-2.85714 1.18128,-1.77192 1.67586,-3.94236 2.85714,-5.71429 0.74711,-1.12066 2.11004,-1.73647 2.85715,-2.85714 1.18128,-1.77192 1.90476,-3.80952 2.85714,-5.71428 0.95238,-1.90477 2.18371,-3.69398 2.85714,-5.71429 0.30117,-0.90351 0,-1.90476 0,-2.85714 1.90476,-3.80953 4.03652,-7.51377 5.71429,-11.42857 1.18636,-2.76819 1.36292,-5.95655 2.85714,-8.57143 2.36257,-4.13449 7.20311,-6.8675 8.57143,-11.42857 1.64199,-5.4733 -0.70877,-11.4727 0,-17.14286 0.26414,-2.11314 2.34064,-3.64828 2.85714,-5.71429 0.92395,-3.69578 -0.92394,-7.73279 0,-11.42857 0.5165,-2.066 2.34064,-3.64828 2.85715,-5.71428 0.6377,-2.55081 0,-10.9785 0,-14.28572 0,-1.90476 -0.60234,-3.90727 0,-5.71428 0.42591,-1.27776 2.53047,-1.55049 2.85714,-2.85715 2.38095,-9.52381 -1.5873,-6.3492 0,-14.28571 0.59064,-2.95321 2.36202,-5.60071 2.85714,-8.57143 0.63935,-3.83607 0,-18.52383 0,-22.85714 0,-17.14286 0,-34.28572 0,-51.42857 0,-50.47619 0,-100.95238 0,-151.42858"
       id="path3683"
       inkscape:connector-curvature="0" />
    <path
       style="fill:none;fill-rule:evenodd;stroke:#000000;stroke-width:1px;stroke-linecap:butt;stroke-linejoin:miter;stroke-opacity:1"
       d="m 285.71429,426.64792 c 1.90476,4.7619 3.16972,9.83273 5.71428,14.28571 3.1711,5.54942 17.39339,13.50036 22.85714,17.14286 2.85715,1.90476 6.14333,3.28618 8.57143,5.71429 2.42811,2.4281 3.0329,6.42631 5.71429,8.57142 23.23784,18.59028 -6.94245,-15.51387 17.14286,8.57143 1.50584,1.50585 1.35129,4.20844 2.85714,5.71429 1.50585,1.50585 3.94236,1.67586 5.71428,2.85714 2.24133,1.49422 3.30494,4.50961 5.71429,5.71429 0.85184,0.42592 2.00531,-0.42592 2.85714,0 11.89075,5.94537 -3.05438,-0.19725 2.85715,5.71428 0.67343,0.67344 1.95363,-0.30117 2.85714,0 2.0203,0.67344 3.69398,2.18371 5.71428,2.85715 1.80702,0.60233 4.01062,-0.85184 5.71429,0 1.20468,0.60233 1.65247,2.2548 2.85714,2.85714 0.85184,0.42592 2.00531,-0.42592 2.85715,0 1.20467,0.60234 1.65246,2.2548 2.85714,2.85714 0.85183,0.42592 2.00531,-0.42592 2.85714,0 1.20468,0.60234 1.65247,2.25481 2.85714,2.85714 0.85184,0.42592 2.00531,-0.42591 2.85715,0 1.20467,0.60234 1.65246,2.25481 2.85714,2.85715 1.13283,0.56641 7.98732,-0.58411 8.57143,0 0.67343,0.67343 -0.67344,2.18371 0,2.85714 3.80952,3.80952 2.85714,-4.7619 2.85714,2.85714"
       id="path3685"
       inkscape:connector-curvature="0" />
  </g>
</svg>
