<?xml version="1.0" encoding="UTF-8" standalone="no"?>
<!-- Created with Inkscape (http://www.inkscape.org/) -->

<svg
   xmlns:dc="http://purl.org/dc/elements/1.1/"
   xmlns:cc="http://creativecommons.org/ns#"
   xmlns:rdf="http://www.w3.org/1999/02/22-rdf-syntax-ns#"
   xmlns:svg="http://www.w3.org/2000/svg"
   xmlns="http://www.w3.org/2000/svg"
   xmlns:sodipodi="http://sodipodi.sourceforge.net/DTD/sodipodi-0.dtd"
   xmlns:inkscape="http://www.inkscape.org/namespaces/inkscape"
   width="210mm"
   height="297mm"
   viewBox="0 0 744.09448819 1052.3622047"
   id="svg2"
   version="1.1"
   inkscape:version="0.91 r13725"
   sodipodi:docname="g.svg">
  <defs
     id="defs4" />
  <sodipodi:namedview
     id="base"
     pagecolor="#ffffff"
     bordercolor="#666666"
     borderopacity="1.0"
     inkscape:pageopacity="0.0"
     inkscape:pageshadow="2"
     inkscape:zoom="0.35"
     inkscape:cx="380.71429"
     inkscape:cy="520"
     inkscape:document-units="px"
     inkscape:current-layer="layer1"
     showgrid="false"
     inkscape:window-width="1920"
     inkscape:window-height="1051"
     inkscape:window-x="0"
     inkscape:window-y="0"
     inkscape:window-maximized="1" />
  <metadata
     id="metadata7">
    <rdf:RDF>
      <cc:Work
         rdf:about="">
        <dc:format>image/svg+xml</dc:format>
        <dc:type
           rdf:resource="http://purl.org/dc/dcmitype/StillImage" />
        <dc:title></dc:title>
      </cc:Work>
    </rdf:RDF>
  </metadata>
  <g
     inkscape:label="Layer 1"
     inkscape:groupmode="layer"
     id="layer1">
    <flowRoot
       xml:space="preserve"
       id="flowRoot3485"
       style="fill:black;stroke:none;stroke-opacity:1;stroke-width:1px;stroke-linejoin:miter;stroke-linecap:butt;fill-opacity:1;font-family:'DejaVu Sans';font-style:normal;font-weight:normal;font-size:7.5px;line-height:125%;letter-spacing:0px;word-spacing:0px;text-anchor:start;text-align:start;writing-mode:lr;-inkscape-font-specification:'DejaVu Sans, Normal';font-stretch:normal;font-variant:normal"><flowRegion
         id="flowRegion3487"><rect
           id="rect3489"
           width="80"
           height="105.71429"
           x="137.14285"
           y="323.79077" /></flowRegion><flowPara
         id="flowPara3491"></flowPara></flowRoot>    <path
       style="fill:none;fill-rule:evenodd;stroke:#000000;stroke-width:1px;stroke-linecap:butt;stroke-linejoin:miter;stroke-opacity:1"
       d="m 528.57143,726.64792 c -7.61905,0 0.95238,-0.95238 -2.85714,2.85714 -5.91153,5.91153 0.23108,-9.0336 -5.71429,2.85714 -0.42592,0.85184 0.67344,2.18371 0,2.85715 -0.67344,0.67343 -2.00531,-0.42592 -2.85714,0 -2.40936,1.20467 -3.47296,4.22007 -5.71429,5.71428 -1.77192,1.18129 -4.01061,1.57939 -5.71428,2.85715 -3.98054,2.98539 -7.824,7.82399 -11.42858,11.42857 -0.95238,0.95238 -1.65246,2.2548 -2.85714,2.85714 -1.70367,0.85184 -4.36741,-1.34687 -5.71428,0 -0.67344,0.67344 0.67343,2.18371 0,2.85714 -0.11498,0.11498 -10.37933,0 -11.42858,0 -15.23809,0 -30.47619,0 -45.71428,0 -4.76191,0 -9.52381,0 -14.28572,0 -1.90476,0 -3.86639,0.46198 -5.71428,0 -2.06601,-0.5165 -3.64828,-2.34064 -5.71429,-2.85714 -1.84789,-0.46197 -3.90727,0.60234 -5.71428,0 -1.27776,-0.42592 -1.55049,-2.53048 -2.85715,-2.85714 -2.77183,-0.69296 -5.8609,0.90351 -8.57142,0 -0.12442,-0.0415 0,-7.93175 0,-11.42857 0,-16.19048 0,-32.38096 0,-48.57143 0,-2.85715 0,-5.71429 0,-8.57143 0,-2.85714 -0.46972,-5.75316 0,-8.57143 0.49511,-2.97072 2.2665,-5.61822 2.85714,-8.57143 0.74711,-3.73554 -0.74711,-7.69302 0,-11.42857 1.18128,-5.90642 4.05953,-11.35123 5.71428,-17.14286 1.07877,-3.77568 2.00531,-7.59531 2.85715,-11.42857 1.05346,-4.74057 1.15201,-9.7387 2.85714,-14.28571 1.20571,-3.21522 4.17862,-5.50009 5.71429,-8.57143 2.69374,-5.38748 3.02054,-11.75538 5.71428,-17.14286 1.53567,-3.07133 4.62841,-5.31378 5.71429,-8.57143 2.12959,-6.38876 -3.6198,-14.1962 2.85714,-20 1.35266,-3.15621 4.36162,-5.41521 5.71429,-8.57143 1.54683,-3.60926 1.61539,-7.70331 2.85714,-11.42857 0.12791,-0.38373 11.39637,-28.42631 11.42857,-28.57143 0.8264,-3.7188 0,-7.61904 0,-11.42857 0,-3.80952 0,-7.61904 0,-11.42857 0,-4.7619 0,-9.52381 0,-14.28571 0,-0.95238 0.42592,2.00531 0,2.85714 -0.60234,1.20468 -1.90476,1.90476 -2.85714,2.85714 -0.95238,0.95238 -1.90476,1.90477 -2.85715,2.85715 -2.85714,2.85714 -5.71428,5.71428 -8.57142,8.57142 -1.90477,1.90477 -4.22007,3.47296 -5.71429,5.71429 -1.18128,1.77193 -1.90476,3.80952 -2.85714,5.71429 -6.53104,13.06207 2.36256,-2.36257 -11.42857,11.42857 -2.42811,2.4281 -3.51599,5.93346 -5.71429,8.57143 -10.74421,12.89304 -6.54709,3.60026 -14.28571,17.14285 -5.28286,9.24501 -9.23753,19.19623 -14.28572,28.57143 -29.82299,55.38555 11.63445,-25.6327 -28.57143,51.42857 -5.91045,11.32837 -10.37078,23.45039 -17.14285,34.28572 -7.57142,12.11426 -17.66662,22.48246 -25.71429,34.28571 -6.25674,9.17656 -10.73788,19.49772 -17.14286,28.57143 -0.0305,0.0431 -34.1491,39.83303 -34.28571,40 -1.62129,1.98157 -7.99188,14.28571 -14.28572,14.28571 -0.95238,0 0,-1.90476 0,-2.85714 0,-5.71428 0,-11.42857 0,-17.14286 0,-11.42857 0,-22.85714 0,-34.28571 0,-71.42857 0,-142.85714 0,-214.28571 0,-14.28572 0,-28.57143 0,-42.85715 10.004,-5.92926 21.07886,-0.97537 31.42858,-2.85714 5.92622,-1.0775 11.3735,-3.98348 17.14285,-5.71429 10.54284,-3.16285 20.82469,-5.0368 31.42857,-8.57142 23.49164,-7.83055 -6.02338,1.00389 17.14286,-2.85715 5.94143,-0.99024 11.29932,-4.2534 17.14286,-5.71428 2.68907,-0.67227 5.88235,0.67227 8.57143,0 2.066,-0.5165 3.69398,-2.18371 5.71428,-2.85715 0.90351,-0.30116 2.00531,0.42592 2.85715,0 1.20467,-0.60233 1.57939,-2.43122 2.85714,-2.85714 1.80701,-0.60234 3.86639,0.46197 5.71428,0 2.06601,-0.5165 3.64829,-2.34064 5.71429,-2.85714 1.84789,-0.46197 3.90727,0.60234 5.71429,0 1.27775,-0.42592 1.65246,-2.25481 2.85714,-2.85714 2.28571,-1.14286 6.28571,1.14285 8.57143,0 1.20467,-0.60234 1.65246,-2.25481 2.85714,-2.85715 0.85184,-0.42591 1.90476,0 2.85714,0 1.90476,-0.95238 3.94236,-1.67586 5.71429,-2.85714 3.36199,-2.24133 5.20944,-6.3301 8.57143,-8.57143 3.54385,-2.36256 7.73057,-3.60114 11.42857,-5.71428 8.94443,-5.11111 10.80158,-8.15344 20,-14.28572 10.76276,-7.17517 14.82181,-8.83947 25.71428,-14.28571 3.80953,-1.90476 7.88473,-3.35172 11.42858,-5.71429 2.24132,-1.49422 3.55929,-4.09804 5.71428,-5.71428 11.54699,-8.66024 1.35719,-0.4524 8.57143,-2.85715 2.02031,-0.67343 3.69398,-2.1837 5.71429,-2.85714 0.9035,-0.30117 2.1837,0.67344 2.85714,0 0.67343,-0.67343 -0.67344,-2.18371 0,-2.85714 1.34687,-1.34687 4.36741,1.34687 5.71428,0 0.67344,-0.67344 -0.67343,-2.18371 0,-2.85715 0.67344,-0.67343 1.90477,0 2.85715,0 0.95238,0 1.90476,0 2.85714,0 10.47619,0 20.95238,0 31.42857,0"
       id="path3706"
       inkscape:connector-curvature="0" />
  </g>
</svg>
