<?xml version="1.0" encoding="UTF-8" standalone="no"?>
<!-- Created with Inkscape (http://www.inkscape.org/) -->

<svg
   xmlns:dc="http://purl.org/dc/elements/1.1/"
   xmlns:cc="http://creativecommons.org/ns#"
   xmlns:rdf="http://www.w3.org/1999/02/22-rdf-syntax-ns#"
   xmlns:svg="http://www.w3.org/2000/svg"
   xmlns="http://www.w3.org/2000/svg"
   xmlns:sodipodi="http://sodipodi.sourceforge.net/DTD/sodipodi-0.dtd"
   xmlns:inkscape="http://www.inkscape.org/namespaces/inkscape"
   width="210mm"
   height="297mm"
   viewBox="0 0 744.09448819 1052.3622047"
   id="svg2"
   version="1.1"
   inkscape:version="0.91 r13725"
   sodipodi:docname="h.svg">
  <defs
     id="defs4" />
  <sodipodi:namedview
     id="base"
     pagecolor="#ffffff"
     bordercolor="#666666"
     borderopacity="1.0"
     inkscape:pageopacity="0.0"
     inkscape:pageshadow="2"
     inkscape:zoom="0.35"
     inkscape:cx="380.71429"
     inkscape:cy="520"
     inkscape:document-units="px"
     inkscape:current-layer="layer1"
     showgrid="false"
     inkscape:window-width="1920"
     inkscape:window-height="1051"
     inkscape:window-x="0"
     inkscape:window-y="0"
     inkscape:window-maximized="1" />
  <metadata
     id="metadata7">
    <rdf:RDF>
      <cc:Work
         rdf:about="">
        <dc:format>image/svg+xml</dc:format>
        <dc:type
           rdf:resource="http://purl.org/dc/dcmitype/StillImage" />
        <dc:title></dc:title>
      </cc:Work>
    </rdf:RDF>
  </metadata>
  <g
     inkscape:label="Layer 1"
     inkscape:groupmode="layer"
     id="layer1">
    <flowRoot
       xml:space="preserve"
       id="flowRoot3485"
       style="fill:black;stroke:none;stroke-opacity:1;stroke-width:1px;stroke-linejoin:miter;stroke-linecap:butt;fill-opacity:1;font-family:'DejaVu Sans';font-style:normal;font-weight:normal;font-size:7.5px;line-height:125%;letter-spacing:0px;word-spacing:0px;text-anchor:start;text-align:start;writing-mode:lr;-inkscape-font-specification:'DejaVu Sans, Normal';font-stretch:normal;font-variant:normal"><flowRegion
         id="flowRegion3487"><rect
           id="rect3489"
           width="80"
           height="105.71429"
           x="137.14285"
           y="323.79077" /></flowRegion><flowPara
         id="flowPara3491"></flowPara></flowRoot>    <path
       style="fill:none;fill-rule:evenodd;stroke:#000000;stroke-width:1px;stroke-linecap:butt;stroke-linejoin:miter;stroke-opacity:1"
       d="M 102.85714,506.64792 228.57143,363.79078 c 36.03448,54.05172 -0.801,-4.45914 14.28571,25.71428 1.53567,3.07134 4.01062,5.59001 5.71429,8.57143 3.9827,6.96973 8.97947,18.36699 11.42857,25.71429 5.41845,16.25535 0.21118,6.24223 5.71429,20 -2.73191,1.43468 5.26707,7.677 5.71428,8.57142 0.85184,1.70368 -1.34687,4.36742 0,5.71429 0.67344,0.67344 2.18371,-0.67343 2.85714,0 0.67344,0.67344 -0.67343,2.18371 0,2.85714 0.67344,0.67344 2.18371,-0.67343 2.85715,0 0.67343,0.67344 -0.42592,2.00531 0,2.85715 0.60234,1.20467 2.2548,1.65246 2.85714,2.85714 0.42592,0.85183 -0.42592,2.00531 0,2.85714 0.60234,1.20468 2.43123,1.57939 2.85714,2.85714 0.60234,1.80702 -0.60234,3.90727 0,5.71429 0.42592,1.27775 2.43123,1.57939 2.85715,2.85714 0.9035,2.71053 -0.90351,5.86091 0,8.57143 0.67343,2.02031 2.34064,3.64828 2.85714,5.71429 0.46197,1.84789 0,3.80952 0,5.71428 0,0.95238 -0.42592,2.00531 0,2.85715 0.60234,1.20467 2.2548,1.65246 2.85714,2.85714 0.42592,0.85183 -0.42592,2.00531 0,2.85714 0.60234,1.20468 2.25481,1.65247 2.85714,2.85714 0.85184,1.70368 -0.85183,4.01062 0,5.71429 0.60234,1.20468 2.25481,1.65247 2.85715,2.85714 0.42591,0.85184 0,1.90477 0,2.85715 0,0.95238 0,1.90476 0,2.85714 4.87627,-14.6839 12.78775,-28.25238 22.85714,-40 12.09273,-14.10819 5.70217,-2.83292 11.42857,-14.28572 0.95238,-1.90476 1.67586,-3.94236 2.85714,-5.71428 0.74711,-1.12066 2.25481,-1.65247 2.85715,-2.85714 0.42591,-0.85184 0,-1.90477 0,-2.85715 0.95238,-1.90476 1.67586,-3.94236 2.85714,-5.71428 1.49422,-2.24133 4.50961,-3.30493 5.71429,-5.71429 0.42591,-0.85183 -0.42592,-2.00531 0,-2.85714 0.60233,-1.20468 2.11003,-1.73648 2.85714,-2.85714 1.18128,-1.77193 1.67586,-3.94236 2.85714,-5.71429 4.37594,-6.5639 1.632,1.22515 8.57143,-5.71429 1.50585,-1.50584 1.76148,-3.88817 2.85714,-5.71428 1.76671,-2.94451 3.94758,-5.62692 5.71429,-8.57143 1.09566,-1.82611 1.57939,-4.01061 2.85714,-5.71429 1.61625,-2.15499 4.22007,-3.47295 5.71429,-5.71428 0.52828,-0.79243 -0.42592,-2.00531 0,-2.85714 5.94537,-11.89075 -0.19725,3.05438 5.71428,-2.85715 0.67344,-0.67343 -0.67343,-2.1837 0,-2.85714 0.67344,-0.67343 2.18371,0.67344 2.85715,0 1.42857,-1.42857 -1.42858,-7.14286 0,-8.57143 1.90099,-1.90099 3.81329,1.90099 5.71428,0 0.67344,-0.67343 -0.67343,-2.18371 0,-2.85714 0.67344,-0.67344 2.00531,0.42592 2.85714,0 2.40936,-1.20468 3.30494,-4.50961 5.71429,-5.71429 0.85184,-0.42591 2.18371,0.67344 2.85714,0 0.67344,-0.67343 -0.42591,-2.0053 0,-2.85714 5.94537,-11.89074 -0.19724,3.05439 5.71429,-2.85714 0.67343,-0.67344 -0.67344,-2.18371 0,-2.85715 0.67343,-0.67343 1.90476,0 2.85714,0 1.05067,0 8.00119,-0.34214 8.57143,0 17.39805,10.43883 7.64977,5.45315 17.14286,22.85715 3.28862,6.02914 8.17259,11.09603 11.42857,17.14285 16.90356,31.39233 1.41455,8.5434 14.28571,34.28572 1.53567,3.07134 4.62841,5.31378 5.71429,8.57143 0.90351,2.71052 -0.56033,5.76977 0,8.57143 -1.72208,5.17125 4.6284,5.31378 5.71428,8.57142 0.60234,1.80702 -0.46197,3.8664 0,5.71429 1.41849,5.67396 7.15294,11.4689 8.57143,17.14286 0.46198,1.84789 -0.60234,3.90727 0,5.71428 0.42592,1.27776 2.25481,1.65247 2.85715,2.85715 0.37563,0.75126 0,9.93451 0,11.42857 0,4.7619 0,9.52381 0,14.28571 0,0.95238 -0.67344,2.18371 0,2.85714 0.67343,0.67344 1.90476,0 2.85714,0"
       id="path3757"
       inkscape:connector-curvature="0" />
    <path
       style="fill:none;fill-rule:evenodd;stroke:#000000;stroke-width:1px;stroke-linecap:butt;stroke-linejoin:miter;stroke-opacity:1"
       d="m 291.42857,518.07649 c 0,61.90476 0,123.80952 0,185.71429"
       id="path3759"
       inkscape:connector-curvature="0" />
    <path
       style="fill:none;fill-rule:evenodd;stroke:#000000;stroke-width:1px;stroke-linecap:butt;stroke-linejoin:miter;stroke-opacity:1"
       d="m 322.85714,372.3622 c 0,-47.61904 0,-95.23809 0,-142.85714 0,-11.42857 0,-22.85714 0,-34.28571 0,-0.65934 -0.32967,-8.46154 0,-8.57143 2.71053,-0.90351 5.71429,0 8.57143,0 10.47619,0 20.95238,0 31.42857,0 6.66667,0 13.33334,0 20,0 1.28674,0 7.70191,-0.43476 8.57143,0 2.61521,1.3076 5.0183,6.48346 5.71429,8.57143 0.60234,1.80701 -0.85184,4.01061 0,5.71428 0.60234,1.20468 2.2548,1.65247 2.85714,2.85715 0.42592,0.85183 -0.42592,2.0053 0,2.85714 0.60234,1.20468 1.90476,1.90476 2.85714,2.85714 0.95238,0.95238 1.90476,1.90476 2.85715,2.85714 1.68041,1.68042 10.76703,10.10549 11.42857,11.42858 0.42591,0.85183 -0.42592,2.0053 0,2.85714 5.90769,11.81538 -0.19341,-6.1011 5.71428,5.71428 0.42592,0.85184 -0.42591,2.00531 0,2.85715 0.60234,1.20467 2.43123,1.57939 2.85715,2.85714 0.60233,1.80702 0,3.80952 0,5.71429 0,0.95238 -0.42592,2.0053 0,2.85714 0.60233,1.20468 2.2548,1.65246 2.85714,2.85714 1.5133,3.0266 -1.5133,2.68769 0,5.71429 0.60234,1.20467 2.2548,1.65246 2.85714,2.85714 0.43476,0.86953 0,7.28469 0,8.57143 0,5.71428 0,11.42857 0,17.14286 0,4.7619 0,9.52381 0,14.28571 0,0.95238 0.67344,2.18371 0,2.85714 -0.67343,0.67344 -1.90476,0 -2.85714,0 -0.95238,0 -1.90476,0 -2.85714,0 -10.47619,0 -20.95239,0 -31.42858,0 -0.95238,0 -1.90476,0 -2.85714,0 -0.95238,0 -2.18371,0.67344 -2.85714,0 -0.67344,-0.67343 0,-1.90476 0,-2.85714 0,-0.95238 0,-1.90476 0,-2.85714"
       id="path3761"
       inkscape:connector-curvature="0" />
  </g>
</svg>
