<?xml version="1.0" encoding="UTF-8" standalone="no"?>
<!-- Created with Inkscape (http://www.inkscape.org/) -->

<svg
   xmlns:dc="http://purl.org/dc/elements/1.1/"
   xmlns:cc="http://creativecommons.org/ns#"
   xmlns:rdf="http://www.w3.org/1999/02/22-rdf-syntax-ns#"
   xmlns:svg="http://www.w3.org/2000/svg"
   xmlns="http://www.w3.org/2000/svg"
   xmlns:sodipodi="http://sodipodi.sourceforge.net/DTD/sodipodi-0.dtd"
   xmlns:inkscape="http://www.inkscape.org/namespaces/inkscape"
   width="210mm"
   height="297mm"
   viewBox="0 0 744.09448819 1052.3622047"
   id="svg2"
   version="1.1"
   inkscape:version="0.91 r13725"
   sodipodi:docname="j.svg">
  <defs
     id="defs4" />
  <sodipodi:namedview
     id="base"
     pagecolor="#ffffff"
     bordercolor="#666666"
     borderopacity="1.0"
     inkscape:pageopacity="0.0"
     inkscape:pageshadow="2"
     inkscape:zoom="0.35"
     inkscape:cx="380.71429"
     inkscape:cy="520"
     inkscape:document-units="px"
     inkscape:current-layer="layer1"
     showgrid="false"
     inkscape:window-width="1920"
     inkscape:window-height="1051"
     inkscape:window-x="0"
     inkscape:window-y="0"
     inkscape:window-maximized="1" />
  <metadata
     id="metadata7">
    <rdf:RDF>
      <cc:Work
         rdf:about="">
        <dc:format>image/svg+xml</dc:format>
        <dc:type
           rdf:resource="http://purl.org/dc/dcmitype/StillImage" />
        <dc:title></dc:title>
      </cc:Work>
    </rdf:RDF>
  </metadata>
  <g
     inkscape:label="Layer 1"
     inkscape:groupmode="layer"
     id="layer1">
    <flowRoot
       xml:space="preserve"
       id="flowRoot3485"
       style="fill:black;stroke:none;stroke-opacity:1;stroke-width:1px;stroke-linejoin:miter;stroke-linecap:butt;fill-opacity:1;font-family:'DejaVu Sans';font-style:normal;font-weight:normal;font-size:7.5px;line-height:125%;letter-spacing:0px;word-spacing:0px;text-anchor:start;text-align:start;writing-mode:lr;-inkscape-font-specification:'DejaVu Sans, Normal';font-stretch:normal;font-variant:normal"><flowRegion
         id="flowRegion3487"><rect
           id="rect3489"
           width="80"
           height="105.71429"
           x="137.14285"
           y="323.79077" /></flowRegion><flowPara
         id="flowPara3491"></flowPara></flowRoot>    <path
       style="fill:none;fill-rule:evenodd;stroke:#000000;stroke-width:1px;stroke-linecap:butt;stroke-linejoin:miter;stroke-opacity:1"
       d="m 202.85714,683.79078 c 21.90476,0 43.80953,0 65.71429,0 0.67894,0 10.7882,-0.32019 11.42857,0 1.20468,0.60233 1.65247,2.2548 2.85714,2.85714 0.85184,0.42592 2.43123,-0.85184 2.85715,0 0.85183,1.70367 -0.60234,3.90727 0,5.71428 0.42591,1.27776 2.43122,1.57939 2.85714,2.85715 0.43596,1.30789 0,12.69098 0,14.28571 0,10.47619 0,20.95238 0,31.42857 0,1.90477 1.34687,4.36742 0,5.71429 -2.12959,2.12959 -6.16208,1.05013 -8.57143,2.85714 -1.70367,1.27775 -1.3513,4.20844 -2.85714,5.71429 -1.50585,1.50584 -3.80953,1.90476 -5.71429,2.85714 -1.90476,0.95238 -3.64828,2.34064 -5.71428,2.85714 -1.84789,0.46198 -3.80953,0 -5.71429,0 -6.66667,0 -13.33333,0 -20,0 -6.66667,0 -13.33333,0 -20,0 -1.90476,0 -3.80952,0 -5.71429,0 -1.90476,0 -3.86639,0.46198 -5.71428,0 -2.06601,-0.5165 -3.80953,-1.90476 -5.71429,-2.85714 -8.12364,-4.06182 -4.20844,-1.3513 -11.42857,-8.57143 -0.95238,-0.95238 -2.11003,-1.73648 -2.85714,-2.85714 -1.18128,-1.77193 -1.67586,-3.94236 -2.85714,-5.71429 -0.74711,-1.12066 -2.11004,-1.73648 -2.85715,-2.85714 -1.18128,-1.77192 -1.90476,-3.80952 -2.85714,-5.71429 -0.95238,-1.90476 -2.34064,-3.64828 -2.85714,-5.71428 -0.46198,-1.84789 0,-3.80952 0,-5.71429 0,-2.85714 0,-5.71428 0,-8.57143 0,-11.63636 0,-5.50649 0,-17.14285 0,-6.66667 0,-13.33334 0,-20 0,-1.90476 0,-3.80953 0,-5.71429 0,-1.90476 -0.70741,-3.94576 0,-5.71428 4.30202,-10.75507 14.56381,-13.36534 22.85714,-20 2.10346,-1.68277 3.61083,-4.03152 5.71429,-5.71429 8.25011,-6.60009 8.15362,-3.76346 14.28571,-11.42857 2.14511,-2.68139 3.28618,-6.14333 5.71429,-8.57143 14.85021,-14.85021 2.97608,2.70847 14.28571,-11.42857 2.14511,-2.68139 3.51598,-5.93347 5.71429,-8.57143 5.17347,-6.20817 12.44574,-10.5669 17.14285,-17.14286 2.4756,-3.46583 2.98763,-8.15658 5.71429,-11.42857 2.1983,-2.63796 6.14332,-3.28618 8.57143,-5.71428 1.50584,-1.50585 1.57939,-4.01062 2.85714,-5.71429 1.61624,-2.15499 4.09804,-3.55929 5.71429,-5.71429 1.27775,-1.70367 1.57939,-4.01061 2.85714,-5.71428 4.8,-6.4 12.34286,-10.74286 17.14286,-17.14286 1.27775,-1.70367 1.57939,-4.01061 2.85714,-5.71428 1.61624,-2.155 3.80952,-3.80953 5.71428,-5.71429 0.95239,-0.95238 2.25481,-1.65247 2.85715,-2.85714 0.42591,-0.85184 -0.67344,-2.18371 0,-2.85715 0.67343,-0.67343 1.95363,0.30117 2.85714,0 8.16327,-2.72108 4.21769,-2.04081 8.57143,-8.57142 0.74711,-1.12067 1.90476,-1.90477 2.85714,-2.85715 1.90476,-1.90476 3.80953,-3.80952 5.71429,-5.71428 6.66666,-6.66667 13.33333,-13.33334 20,-20 1.90476,-1.90476 3.80952,-3.80953 5.71428,-5.71429 1.90476,-1.90476 3.5593,-4.09804 5.71429,-5.71428 1.70367,-1.27776 4.20844,-1.3513 5.71428,-2.85715 1.50585,-1.50584 1.67586,-3.94236 2.85715,-5.71428 1.49422,-2.24133 4.50961,-3.30493 5.71428,-5.71429 0.42592,-0.85183 -0.67343,-2.18371 0,-2.85714 0.67344,-0.67344 2.00531,0.42592 2.85715,0 1.20467,-0.60234 1.65246,-2.25481 2.85714,-2.85714 0.85183,-0.42592 2.18371,0.67343 2.85714,0 0.67344,-0.67344 -0.42592,-2.00531 0,-2.85715 0.60234,-1.20467 2.25481,-1.65246 2.85714,-2.85714 0.85184,-1.70367 -1.34687,-4.36742 0,-5.71429 0.67344,-0.67343 1.90477,0 2.85715,0 0.95238,0 2.32885,-0.79242 2.85714,0 1.67059,2.50588 2.02977,5.67562 2.85714,8.57143 4.33762,15.18167 3.76585,17.65844 5.71429,37.14286 1.04672,10.46719 1.90476,20.95238 2.85714,31.42857 0.95238,10.47619 2.35679,20.92109 2.85714,31.42857 0.45301,9.51303 0,19.04762 0,28.57143 0,8.57143 0,17.14286 0,25.71429 0,20 0,40 0,60 0,3.80952 0,7.61905 0,11.42857 0,4.7619 -0.47382,9.54744 0,14.28571 0.48322,4.83211 2.11873,9.48598 2.85715,14.28572 1.16754,7.58905 1.35129,15.32791 2.85714,22.85714 0.41765,2.08823 2.18371,3.69398 2.85714,5.71429 0.51544,1.5463 0,10.45521 0,11.42857 0,7.61905 0,15.23809 0,22.85714"
       id="path3880"
       inkscape:connector-curvature="0" />
  </g>
</svg>
