<?xml version="1.0" encoding="UTF-8" standalone="no"?>
<!-- Created with Inkscape (http://www.inkscape.org/) -->

<svg
   xmlns:dc="http://purl.org/dc/elements/1.1/"
   xmlns:cc="http://creativecommons.org/ns#"
   xmlns:rdf="http://www.w3.org/1999/02/22-rdf-syntax-ns#"
   xmlns:svg="http://www.w3.org/2000/svg"
   xmlns="http://www.w3.org/2000/svg"
   xmlns:sodipodi="http://sodipodi.sourceforge.net/DTD/sodipodi-0.dtd"
   xmlns:inkscape="http://www.inkscape.org/namespaces/inkscape"
   width="210mm"
   height="297mm"
   viewBox="0 0 744.09448819 1052.3622047"
   id="svg2"
   version="1.1"
   inkscape:version="0.91 r13725"
   sodipodi:docname="k.svg">
  <defs
     id="defs4" />
  <sodipodi:namedview
     id="base"
     pagecolor="#ffffff"
     bordercolor="#666666"
     borderopacity="1.0"
     inkscape:pageopacity="0.0"
     inkscape:pageshadow="2"
     inkscape:zoom="0.35"
     inkscape:cx="380.71429"
     inkscape:cy="520"
     inkscape:document-units="px"
     inkscape:current-layer="layer1"
     showgrid="false"
     inkscape:window-width="1920"
     inkscape:window-height="1051"
     inkscape:window-x="0"
     inkscape:window-y="0"
     inkscape:window-maximized="1" />
  <metadata
     id="metadata7">
    <rdf:RDF>
      <cc:Work
         rdf:about="">
        <dc:format>image/svg+xml</dc:format>
        <dc:type
           rdf:resource="http://purl.org/dc/dcmitype/StillImage" />
        <dc:title></dc:title>
      </cc:Work>
    </rdf:RDF>
  </metadata>
  <g
     inkscape:label="Layer 1"
     inkscape:groupmode="layer"
     id="layer1">
    <flowRoot
       xml:space="preserve"
       id="flowRoot3485"
       style="fill:black;stroke:none;stroke-opacity:1;stroke-width:1px;stroke-linejoin:miter;stroke-linecap:butt;fill-opacity:1;font-family:'DejaVu Sans';font-style:normal;font-weight:normal;font-size:7.5px;line-height:125%;letter-spacing:0px;word-spacing:0px;text-anchor:start;text-align:start;writing-mode:lr;-inkscape-font-specification:'DejaVu Sans, Normal';font-stretch:normal;font-variant:normal"><flowRegion
         id="flowRegion3487"><rect
           id="rect3489"
           width="80"
           height="105.71429"
           x="137.14285"
           y="323.79077" /></flowRegion><flowPara
         id="flowPara3491"></flowPara></flowRoot>    <path
       style="fill:none;fill-rule:evenodd;stroke:#000000;stroke-width:1px;stroke-linecap:butt;stroke-linejoin:miter;stroke-opacity:1"
       d="m 277.14286,343.79078 c 0,128.57142 0,257.14285 0,385.71428"
       id="path3803"
       inkscape:connector-curvature="0" />
    <path
       style="fill:none;fill-rule:evenodd;stroke:#000000;stroke-width:1px;stroke-linecap:butt;stroke-linejoin:miter;stroke-opacity:1"
       d="m 280,520.93363 c 9.28735,-1.40848 19.30656,1.54415 28.57143,0 2.10061,-0.3501 3.73701,-2.06623 5.71428,-2.85714 28.76078,-11.50431 -6.06627,2.23085 14.28572,-2.85714 2.066,-0.5165 3.64828,-2.34064 5.71428,-2.85715 1.84789,-0.46197 3.8664,0.46198 5.71429,0 2.066,-0.5165 3.64828,-2.34064 5.71429,-2.85714 1.84789,-0.46197 3.80952,0 5.71428,0 7.61905,0 15.2381,0 22.85714,0 1.90477,0 3.83544,0.31314 5.71429,0 3.87334,-0.64555 7.55523,-2.21158 11.42857,-2.85714 3.75769,-0.62628 7.61905,0 11.42857,0 6.66667,0 13.33334,0 20,0 1.90476,0 3.80953,0 5.71429,0 0.95238,0 2.18371,-0.67344 2.85714,0 0.67344,0.67343 -0.67343,2.18371 0,2.85714 0.67344,0.67344 2.18371,-0.67343 2.85714,0 0.67344,0.67344 0,1.90476 0,2.85714 0,4.76191 0,9.52381 0,14.28572 0,1.82922 0.32359,16.65748 0,17.14286 -1.49421,2.24132 -3.80952,3.80952 -5.71428,5.71428 -0.95238,0.95238 -2.25481,1.65247 -2.85714,2.85714 -0.42592,0.85184 0.42591,2.00531 0,2.85715 -1.20468,2.40935 -4.22007,3.47296 -5.71429,5.71428 -1.18128,1.77193 -1.67586,3.94236 -2.85714,5.71429 -1.25138,1.87707 -8.05597,7.02503 -8.57143,8.57143 -0.60234,1.80701 0.85183,4.01061 0,5.71428 -0.42592,0.85184 -2.00531,-0.42591 -2.85714,0 -1.20468,0.60234 -2.25481,1.65247 -2.85715,2.85715 -0.42591,0.85183 0.42592,2.0053 0,2.85714 -0.27345,0.54691 -10.88165,11.15511 -11.42857,11.42857 -0.85183,0.42592 -2.00531,-0.42592 -2.85714,0 -1.20468,0.60234 -1.90476,1.90476 -2.85714,2.85714 -3.26901,3.26901 -3.38221,3.98455 -8.57143,5.71429 -1.80702,0.60234 -4.01062,-0.85184 -5.71429,0 -2.40935,1.20468 -3.30493,4.50961 -5.71428,5.71428 -1.70368,0.85184 -4.01062,-0.85183 -5.71429,0 -2.40935,1.20468 -3.30493,4.50961 -5.71429,5.71429 -0.85183,0.42592 -2.0053,-0.42592 -2.85714,0 -6.3173,3.15865 -0.88663,1.77327 -2.85714,5.71429 -0.60234,1.20467 -1.90476,1.90476 -2.85714,2.85714 -0.95239,0.95238 -1.65247,2.2548 -2.85715,2.85714 -0.85183,0.42592 -2.1837,-0.67343 -2.85714,0 -1.34687,1.34687 0.85184,4.01062 0,5.71429 -0.60234,1.20467 -2.2548,1.65246 -2.85714,2.85714 -0.85184,1.70367 0.85183,4.01062 0,5.71429 -0.60234,1.20467 -2.25481,1.65246 -2.85715,2.85714 -0.43433,0.86867 0,9.45565 0,11.42857 0,7.61905 0,15.2381 0,22.85714 0,15.2381 0,30.47619 0,45.71429 0,0.69293 -0.0919,8.47954 0,8.57143 0.67344,0.67343 2.18371,-0.67344 2.85715,0 0.67343,0.67343 -0.67344,2.18371 0,2.85714 0.003,0.003 8.55848,-0.004 8.57143,0 1.27775,0.42592 1.65246,2.2548 2.85714,2.85714 0.85183,0.42592 1.95363,-0.30117 2.85714,0 2.02031,0.67344 3.64828,2.34065 5.71429,2.85715 2.77183,0.69296 5.71428,0 8.57143,0 7.61904,0 15.23809,0 22.85714,0 22.85714,0 45.71428,0 68.57143,0"
       id="path3805"
       inkscape:connector-curvature="0" />
  </g>
</svg>
