<?xml version="1.0" encoding="UTF-8" standalone="no"?>
<!-- Created with Inkscape (http://www.inkscape.org/) -->

<svg
   xmlns:dc="http://purl.org/dc/elements/1.1/"
   xmlns:cc="http://creativecommons.org/ns#"
   xmlns:rdf="http://www.w3.org/1999/02/22-rdf-syntax-ns#"
   xmlns:svg="http://www.w3.org/2000/svg"
   xmlns="http://www.w3.org/2000/svg"
   xmlns:sodipodi="http://sodipodi.sourceforge.net/DTD/sodipodi-0.dtd"
   xmlns:inkscape="http://www.inkscape.org/namespaces/inkscape"
   width="210mm"
   height="297mm"
   viewBox="0 0 744.09448819 1052.3622047"
   id="svg2"
   version="1.1"
   inkscape:version="0.91 r13725"
   sodipodi:docname="l.svg">
  <defs
     id="defs4" />
  <sodipodi:namedview
     id="base"
     pagecolor="#ffffff"
     bordercolor="#666666"
     borderopacity="1.0"
     inkscape:pageopacity="0.0"
     inkscape:pageshadow="2"
     inkscape:zoom="0.35"
     inkscape:cx="380.71429"
     inkscape:cy="520"
     inkscape:document-units="px"
     inkscape:current-layer="layer1"
     showgrid="false"
     inkscape:window-width="1920"
     inkscape:window-height="1051"
     inkscape:window-x="0"
     inkscape:window-y="0"
     inkscape:window-maximized="1" />
  <metadata
     id="metadata7">
    <rdf:RDF>
      <cc:Work
         rdf:about="">
        <dc:format>image/svg+xml</dc:format>
        <dc:type
           rdf:resource="http://purl.org/dc/dcmitype/StillImage" />
        <dc:title></dc:title>
      </cc:Work>
    </rdf:RDF>
  </metadata>
  <g
     inkscape:label="Layer 1"
     inkscape:groupmode="layer"
     id="layer1">
    <flowRoot
       xml:space="preserve"
       id="flowRoot3485"
       style="fill:black;stroke:none;stroke-opacity:1;stroke-width:1px;stroke-linejoin:miter;stroke-linecap:butt;fill-opacity:1;font-family:'DejaVu Sans';font-style:normal;font-weight:normal;font-size:7.5px;line-height:125%;letter-spacing:0px;word-spacing:0px;text-anchor:start;text-align:start;writing-mode:lr;-inkscape-font-specification:'DejaVu Sans, Normal';font-stretch:normal;font-variant:normal"><flowRegion
         id="flowRegion3487"><rect
           id="rect3489"
           width="80"
           height="105.71429"
           x="137.14285"
           y="323.79077" /></flowRegion><flowPara
         id="flowPara3491"></flowPara></flowRoot>    <path
       style="fill:none;fill-rule:evenodd;stroke:#000000;stroke-width:1px;stroke-linecap:butt;stroke-linejoin:miter;stroke-opacity:1"
       d="m 202.85714,406.64792 c 3.80953,2.85714 7.1694,6.44184 11.42857,8.57143 1.70368,0.85183 3.8664,-0.46198 5.71429,0 2.066,0.5165 3.69398,2.18371 5.71429,2.85714 0.9035,0.30117 1.90476,0 2.85714,0 1.90476,0 3.90727,-0.60234 5.71428,0 1.27776,0.42592 1.57939,2.43123 2.85715,2.85714 1.30789,0.43597 12.69098,0 14.28571,0 7.61905,0 15.2381,0 22.85714,0 7.61905,0 15.2381,0 22.85715,0 2.419,0 9.89255,0.51201 11.42857,0 2.5555,-0.85183 3.47296,-4.22006 5.71428,-5.71428 1.77193,-1.18129 3.94237,-1.67586 5.71429,-2.85715 1.18818,-0.79212 10.91763,-10.40669 11.42857,-11.42857 0.42592,-0.85183 -0.42592,-2.0053 0,-2.85714 0.60234,-1.20468 2.43123,-1.57939 2.85714,-2.85714 0.60234,-1.80702 -0.46197,-3.8664 0,-5.71429 0.51651,-2.066 2.34065,-3.64828 2.85715,-5.71428 0.69296,-2.77184 -0.90351,-5.86091 0,-8.57143 6.89849,-20.69548 -0.82373,4.50459 5.71428,-8.57143 0.52963,-1.05925 -0.47288,-17.14286 0,-17.14286 0.95238,0 -0.95238,2.85714 0,2.85714 1.34687,0 1.65247,-2.2548 2.85715,-2.85714 0.85183,-0.42592 1.90476,0 2.85714,0 0.95238,0 2.18371,-0.67343 2.85714,0 0.0919,0.0919 0,7.8785 0,8.57143 0,20 0,40 0,60 0,23.80952 0,47.61905 0,71.42857 0,7.61905 0,15.2381 0,22.85714 0,2.85715 0,5.71429 0,8.57143 0,1.90477 0.37356,3.84652 0,5.71429 -0.59064,2.95321 -2.2665,5.61822 -2.85714,8.57143 -0.93389,4.66943 0.78285,9.5886 0,14.28571 -0.49512,2.97072 -2.2665,5.61822 -2.85714,8.57143 -0.56998,2.84989 0,21.28701 0,22.85714 0,1.90477 0,3.80953 0,5.71429 0,0.95238 0.30117,1.95363 0,2.85714 -0.67344,2.02031 -2.34065,3.64828 -2.85715,5.71429 -0.34799,1.39197 0.75539,9.91779 0,11.42857 -0.60234,1.20468 -2.2548,1.65246 -2.85714,2.85714 -0.89789,1.79578 0.89789,9.6328 0,11.42857 -0.60234,1.20468 -2.43123,1.57939 -2.85714,2.85715 -0.90351,2.71052 0,5.71428 0,8.57142 0,7.61905 0,15.2381 0,22.85715 0,2.85714 0,5.71428 0,8.57143 0,1.90476 0.60234,3.90727 0,5.71428 -0.42592,1.27775 -2.25481,1.65247 -2.85715,2.85714 -0.36935,0.73872 0,15.11771 0,17.14286 0,12.38095 0,24.76191 0,37.14286"
       id="path3826"
       inkscape:connector-curvature="0" />
    <path
       style="fill:none;fill-rule:evenodd;stroke:#000000;stroke-width:1px;stroke-linecap:butt;stroke-linejoin:miter;stroke-opacity:1"
       d="m 368.57143,518.07649 c -0.95238,-4.7619 -2.17037,-9.47831 -2.85714,-14.28571 -0.6123,-4.28608 0,-12.53503 0,-17.14286 0,-11.42857 0,-22.85714 0,-34.28572 0,-1.90476 0,-3.80952 0,-5.71428 0,-0.95238 -0.42592,-2.00531 0,-2.85714 3.15865,-6.3173 1.77326,-0.88664 5.71428,-2.85715 1.20468,-0.60234 1.73648,-2.11003 2.85714,-2.85714 20.71595,-10.35797 -4.51754,3.01169 8.57143,-5.71429 1.90476,-0.95238 3.80953,-1.90476 5.71429,-2.85714 0.95238,0 2.00531,0.42592 2.85714,0 1.20468,-0.60234 1.65247,-2.2548 2.85714,-2.85714 0.73872,-0.36936 15.11771,0 17.14286,0 1.49406,0 10.67731,-0.37563 11.42857,0 1.20468,0.60234 2.43123,1.57939 2.85715,2.85714 0.41076,1.2323 0,18.88283 0,20 0,5.71429 0,11.42857 0,17.14286 0,1.90476 -0.46198,3.86639 0,5.71428 0.5165,2.06601 2.43949,3.62606 2.85714,5.71429 0.56033,2.80166 0,5.71429 0,8.57143 0,6.66667 0,13.33333 0,20 0,17.14286 0,34.28571 0,51.42857 0,52.38095 0,104.76191 0,157.14286 0,17.14285 0,34.28571 0,51.42857 0,0.95238 0,1.90476 0,2.85714 0,0.95238 -0.67344,2.18371 0,2.85714 0.0919,0.0919 7.87849,0 8.57143,0 1.49406,0 10.67731,0.37564 11.42857,0 3.42857,-1.71428 5.14286,-6.85714 8.57143,-8.57142 0.85183,-0.42592 2.1837,0.67343 2.85714,0 5.91153,-5.91153 -9.0336,0.23108 2.85714,-5.71429 7.61905,0 -0.95238,0.95238 2.85715,-2.85714 0.67343,-0.67344 2.1837,0.67343 2.85714,0 0.67343,-0.67344 -0.67344,-2.18371 0,-2.85715 0.67343,-0.67343 2.00531,0.42592 2.85714,0 3.53058,-1.76528 2.85714,-2.75852 2.85714,-5.71428"
       id="path3828"
       inkscape:connector-curvature="0" />
  </g>
</svg>
