<?xml version="1.0" encoding="UTF-8" standalone="no"?>
<!-- Created with Inkscape (http://www.inkscape.org/) -->

<svg
   xmlns:dc="http://purl.org/dc/elements/1.1/"
   xmlns:cc="http://creativecommons.org/ns#"
   xmlns:rdf="http://www.w3.org/1999/02/22-rdf-syntax-ns#"
   xmlns:svg="http://www.w3.org/2000/svg"
   xmlns="http://www.w3.org/2000/svg"
   xmlns:sodipodi="http://sodipodi.sourceforge.net/DTD/sodipodi-0.dtd"
   xmlns:inkscape="http://www.inkscape.org/namespaces/inkscape"
   width="210mm"
   height="297mm"
   viewBox="0 0 744.09448819 1052.3622047"
   id="svg2"
   version="1.1"
   inkscape:version="0.91 r13725"
   sodipodi:docname="m.svg">
  <defs
     id="defs4" />
  <sodipodi:namedview
     id="base"
     pagecolor="#ffffff"
     bordercolor="#666666"
     borderopacity="1.0"
     inkscape:pageopacity="0.0"
     inkscape:pageshadow="2"
     inkscape:zoom="0.35"
     inkscape:cx="380.71429"
     inkscape:cy="520"
     inkscape:document-units="px"
     inkscape:current-layer="layer1"
     showgrid="false"
     inkscape:window-width="1920"
     inkscape:window-height="1051"
     inkscape:window-x="0"
     inkscape:window-y="0"
     inkscape:window-maximized="1" />
  <metadata
     id="metadata7">
    <rdf:RDF>
      <cc:Work
         rdf:about="">
        <dc:format>image/svg+xml</dc:format>
        <dc:type
           rdf:resource="http://purl.org/dc/dcmitype/StillImage" />
        <dc:title></dc:title>
      </cc:Work>
    </rdf:RDF>
  </metadata>
  <g
     inkscape:label="Layer 1"
     inkscape:groupmode="layer"
     id="layer1">
    <flowRoot
       xml:space="preserve"
       id="flowRoot3485"
       style="fill:black;stroke:none;stroke-opacity:1;stroke-width:1px;stroke-linejoin:miter;stroke-linecap:butt;fill-opacity:1;font-family:'DejaVu Sans';font-style:normal;font-weight:normal;font-size:7.5px;line-height:125%;letter-spacing:0px;word-spacing:0px;text-anchor:start;text-align:start;writing-mode:lr;-inkscape-font-specification:'DejaVu Sans, Normal';font-stretch:normal;font-variant:normal"><flowRegion
         id="flowRegion3487"><rect
           id="rect3489"
           width="80"
           height="105.71429"
           x="137.14285"
           y="323.79077" /></flowRegion><flowPara
         id="flowPara3491"></flowPara></flowRoot>    <path
       style="fill:none;fill-rule:evenodd;stroke:#000000;stroke-width:1px;stroke-linecap:butt;stroke-linejoin:miter;stroke-opacity:1"
       d="m 217.14286,378.07649 c 8.51835,2.75099 -2.12959,10.02654 0,14.28571 1.63774,3.27548 5.96146,3.97431 8.57143,5.71429 2.46542,1.64362 6.33975,6.33975 8.57142,8.57143 0.95239,0.95238 1.65247,2.2548 2.85715,2.85714 0.85183,0.42592 1.90476,0 2.85714,0 1.90476,0 3.90727,-0.60234 5.71429,0 1.27775,0.42592 1.57939,2.43123 2.85714,2.85714 1.57508,0.52503 14.71815,0 17.14286,0 9.52381,0 19.04761,0 28.57142,0 7.61905,0 15.2381,0 22.85715,0 6.24827,0 11.75014,1.1874 17.14285,-2.85714 2.155,-1.61624 3.80953,-3.80952 5.71429,-5.71428 2.85714,-0.95238 5.98892,-1.30764 8.57143,-2.85715 14.28571,-8.57143 0,-2.85714 8.57143,-8.57143 1.77192,-1.18128 4.20844,-1.35129 5.71428,-2.85714 0.67344,-0.67343 -0.67343,-2.18371 0,-2.85714 0.67344,-0.67344 2.18371,0.67343 2.85715,0 0.67343,-0.67344 -0.67344,-2.18371 0,-2.85714 0.67343,-0.67344 2.0053,0.42591 2.85714,0 0.7586,-0.3793 8.19213,-7.81283 8.57143,-8.57143 0.42591,-0.85184 -0.67344,-2.18371 0,-2.85715 0.67343,-0.67343 2.1837,0.67344 2.85714,0 0.67344,-0.67343 0,-1.90476 0,-2.85714 0,-0.95238 0,-3.80952 0,-2.85714 0,45.71428 0,91.42857 0,137.14286 0,31.42857 0,62.85714 0,94.28571 0,22.85714 0,45.71429 0,68.57143 0,8.57143 0,17.14286 0,25.71428 0,2.85715 0.46971,5.75316 0,8.57143 -4.18008,25.0805 -1.051,-4.36741 -5.71429,14.28572 -0.46197,1.84789 0.46198,3.86639 0,5.71428 -2.07159,8.28638 -2.22907,3.34361 -5.71428,8.57143 -6.29476,1.43884 -1.51027,5.87769 -2.85714,8.57143 -0.60234,1.20468 -1.90477,1.90476 -2.85715,2.85714 -0.95238,0.95238 -1.73648,2.11004 -2.85714,2.85715 -1.77192,1.18128 -4.01061,1.57939 -5.71429,2.85714 -2.15499,1.61624 -3.55929,4.09804 -5.71428,5.71428 -1.70367,1.27776 -4.01062,1.57939 -5.71429,2.85715 -2.15499,1.61624 -3.55929,4.09804 -5.71428,5.71428 -1.70367,1.27776 -3.80953,1.90477 -5.71429,2.85715 -1.90476,0.95238 -3.69398,2.1837 -5.71428,2.85714 -0.90351,0.30117 -1.95364,-0.30117 -2.85715,0 -2.0203,0.67343 -3.69398,2.18371 -5.71428,2.85714 -0.90351,0.30117 -2.00531,-0.42592 -2.85715,0 -7.06115,3.53058 0.98623,2.85714 -5.71428,2.85714 -3.12984,0 -11.28433,0.28849 -11.42857,0 -0.85184,-1.70367 0,-3.80952 0,-5.71428 0,-8.57143 0,-17.14286 0,-25.71429 0,-9.52381 0,-19.04762 0,-28.57143 0,-4.7619 -0.93389,-9.61628 0,-14.28571 1.22141,-6.10707 10.03175,-12.8889 14.28571,-17.14286 7.61905,-7.61904 15.2381,-15.23809 22.85714,-22.85714 1.90477,-1.90476 3.80953,-3.80952 5.71429,-5.71429 1.90476,-1.90476 4.09804,-3.55929 5.71429,-5.71428 1.27775,-1.70367 1.57939,-4.01062 2.85714,-5.71429 1.61624,-2.15499 4.09804,-3.55929 5.71428,-5.71428 1.27776,-1.70367 1.57939,-4.01062 2.85715,-5.71429 1.61624,-2.15499 4.09804,-3.55929 5.71428,-5.71428 1.27776,-1.70367 1.57939,-4.01062 2.85715,-5.71429 3.23248,-4.30998 8.19608,-7.11859 11.42857,-11.42857 1.27775,-1.70367 1.57939,-4.01062 2.85714,-5.71429 2.9854,-3.98053 7.82399,-7.82399 11.42857,-11.42857 2.23168,-2.23167 6.106,-6.92781 8.57143,-8.57143 0.5322,-0.3548 11.24549,-5.5312 11.42857,-5.71428 1.50585,-1.50585 1.3513,-4.20844 2.85714,-5.71429 1.50585,-1.50584 3.94237,-1.67586 5.71429,-2.85714 1.12066,-0.74711 1.65247,-2.25481 2.85714,-2.85714 1.70367,-0.85184 4.01062,0.85183 5.71429,0 9.47595,-9.47595 -2.69374,1.34687 5.71428,-2.85715 1.20468,-0.60234 1.65247,-2.2548 2.85715,-2.85714 0.85183,-0.42592 2.1837,0.67344 2.85714,0 0.67344,-0.67343 0,-1.90476 0,-2.85714 1.90476,0 4.01061,0.85183 5.71429,0 0.85183,-0.42592 -0.67344,-2.18371 0,-2.85715 0.67343,-0.67343 1.90476,0 2.85714,0 1.90476,0 4.01061,0.85184 5.71428,0 0.85184,-0.42591 -0.67343,-2.1837 0,-2.85714 0.67344,-0.67343 2.00531,0.42592 2.85715,0 1.20467,-0.60234 1.65246,-2.2548 2.85714,-2.85714 0.86953,-0.43476 7.28469,0 8.57143,0"
       id="path4143"
       inkscape:connector-curvature="0" />
  </g>
</svg>
