<?xml version="1.0" encoding="UTF-8" standalone="no"?>
<!-- Created with Inkscape (http://www.inkscape.org/) -->

<svg
   xmlns:dc="http://purl.org/dc/elements/1.1/"
   xmlns:cc="http://creativecommons.org/ns#"
   xmlns:rdf="http://www.w3.org/1999/02/22-rdf-syntax-ns#"
   xmlns:svg="http://www.w3.org/2000/svg"
   xmlns="http://www.w3.org/2000/svg"
   xmlns:sodipodi="http://sodipodi.sourceforge.net/DTD/sodipodi-0.dtd"
   xmlns:inkscape="http://www.inkscape.org/namespaces/inkscape"
   width="210mm"
   height="297mm"
   viewBox="0 0 744.09448819 1052.3622047"
   id="svg2"
   version="1.1"
   inkscape:version="0.91 r13725"
   sodipodi:docname="n.svg">
  <defs
     id="defs4" />
  <sodipodi:namedview
     id="base"
     pagecolor="#ffffff"
     bordercolor="#666666"
     borderopacity="1.0"
     inkscape:pageopacity="0.0"
     inkscape:pageshadow="2"
     inkscape:zoom="0.35"
     inkscape:cx="380.71429"
     inkscape:cy="520"
     inkscape:document-units="px"
     inkscape:current-layer="layer1"
     showgrid="false"
     inkscape:window-width="1920"
     inkscape:window-height="1051"
     inkscape:window-x="0"
     inkscape:window-y="0"
     inkscape:window-maximized="1" />
  <metadata
     id="metadata7">
    <rdf:RDF>
      <cc:Work
         rdf:about="">
        <dc:format>image/svg+xml</dc:format>
        <dc:type
           rdf:resource="http://purl.org/dc/dcmitype/StillImage" />
        <dc:title></dc:title>
      </cc:Work>
    </rdf:RDF>
  </metadata>
  <g
     inkscape:label="Layer 1"
     inkscape:groupmode="layer"
     id="layer1">
    <flowRoot
       xml:space="preserve"
       id="flowRoot3485"
       style="fill:black;stroke:none;stroke-opacity:1;stroke-width:1px;stroke-linejoin:miter;stroke-linecap:butt;fill-opacity:1;font-family:'DejaVu Sans';font-style:normal;font-weight:normal;font-size:7.5px;line-height:125%;letter-spacing:0px;word-spacing:0px;text-anchor:start;text-align:start;writing-mode:lr;-inkscape-font-specification:'DejaVu Sans, Normal';font-stretch:normal;font-variant:normal"><flowRegion
         id="flowRegion3487"><rect
           id="rect3489"
           width="80"
           height="105.71429"
           x="137.14285"
           y="323.79077" /></flowRegion><flowPara
         id="flowPara3491"></flowPara></flowRoot>    <path
       style="fill:none;fill-rule:evenodd;stroke:#000000;stroke-width:1px;stroke-linecap:butt;stroke-linejoin:miter;stroke-opacity:1"
       d="m 237.14286,435.21935 c 0,-7.61905 0,-15.2381 0,-22.85715 0,-0.95238 0,-1.90476 0,-2.85714 0,-0.95238 -0.42592,-2.00531 0,-2.85714 0.24508,-0.49017 8.21649,-8.45312 8.57143,-8.57143 1.80701,-0.60234 3.86639,0.46197 5.71428,0 4.13201,-1.033 7.29656,-4.68128 11.42857,-5.71429 1.84789,-0.46197 3.8664,0.46198 5.71429,0 2.066,-0.5165 3.62605,-2.43949 5.71428,-2.85714 4.66944,-0.93388 9.66599,1.15493 14.28572,0 2.066,-0.5165 3.64828,-2.34064 5.71428,-2.85714 3.69579,-0.92395 7.73279,0.92394 11.42858,0 2.066,-0.5165 3.69398,-2.18371 5.71428,-2.85714 0.90351,-0.30117 1.95364,0.30117 2.85714,0 2.02031,-0.67344 3.69398,-2.18371 5.71429,-2.85715 2.71052,-0.9035 5.79959,0.69296 8.57143,0 4.13201,-1.033 7.38796,-4.36741 11.42857,-5.71428 0.90351,-0.30117 2.00531,0.42592 2.85714,0 1.20468,-0.60234 1.65247,-2.25481 2.85715,-2.85715 0.85183,-0.42591 2.0053,0.42592 2.85714,0 1.20468,-0.60233 1.90476,-1.90476 2.85714,-2.85714 0.95238,-0.95238 2.25481,-1.65246 2.85714,-2.85714 0.42592,-0.85184 -0.67343,-2.18371 0,-2.85714 0.67344,-0.67344 1.95364,0.30117 2.85715,0 2.0203,-0.67344 4.20844,-1.3513 5.71428,-2.85715 1.50585,-1.50584 1.67586,-3.94236 2.85715,-5.71428 1.73393,-2.6009 7.30523,-6.03904 8.57142,-8.57143 0.42592,-0.85184 -0.67343,-2.18371 0,-2.85714 0.67344,-0.67344 2.18371,0.67343 2.85715,0 0.67343,-0.67344 -0.67344,-2.18371 0,-2.85715 0.67343,-0.67343 2.0053,0.42592 2.85714,0 1.20468,-0.60234 2.2548,-1.65246 2.85714,-2.85714 0.42592,-0.85183 -0.95238,-2.85714 0,-2.85714 0.95238,0 0,1.90476 0,2.85714 0,14.4787 -0.85183,-3.40734 2.85715,11.42857 0.46197,1.84789 -0.37356,3.84651 0,5.71429 0.59064,2.95321 2.2665,5.61822 2.85714,8.57143 0.37355,1.86777 0,3.80952 0,5.71428 0,3.80953 0,7.61905 0,11.42857 0,9.52381 0,19.04762 0,28.57143 0,56.19048 0,112.38095 0,168.57143 0,20.95238 0,41.90476 0,62.85714 0,7.61905 0,15.2381 0,22.85715 0,1.28673 0.43476,7.7019 0,8.57142 -0.60234,1.20468 -1.90476,1.90477 -2.85714,2.85715 -0.95239,0.95238 -1.57939,2.43122 -2.85715,2.85714 -1.80701,0.60234 -3.90727,-0.60234 -5.71428,0 -1.27776,0.42592 -1.73648,2.11003 -2.85715,2.85714 -1.77192,1.18129 -3.94236,1.67586 -5.71428,2.85715 -6.53801,4.35867 1.78654,2.26162 -8.57143,5.71428 -0.90351,0.30117 -1.95363,-0.30117 -2.85714,0 -2.02031,0.67344 -3.69398,2.18371 -5.71429,2.85714 -0.90351,0.30117 -1.95363,-0.30116 -2.85714,0 -2.02031,0.67344 -3.69398,2.18371 -5.71429,2.85715 -1.80701,0.60234 -4.01061,-0.85184 -5.71428,0 -1.20468,0.60234 -1.57939,2.43122 -2.85715,2.85714 -2.71052,0.90351 -5.71428,0 -8.57142,0 -5.71429,0 -11.42858,0 -17.14286,0 -1.08878,0 -14.00839,0.27732 -14.28572,0 -0.67343,-0.67343 0.42592,-2.00531 0,-2.85714 -0.60233,-1.20468 -2.11003,-1.73648 -2.85714,-2.85715 -1.18128,-1.77192 -1.67586,-3.94236 -2.85714,-5.71428 -0.74711,-1.12066 -2.25481,-1.65247 -2.85714,-2.85714 -0.42592,-0.85184 0,-1.90477 0,-2.85715 0,-1.90476 0.46197,-3.86639 0,-5.71428 -0.51651,-2.06601 -2.34065,-3.64828 -2.85715,-5.71429 -0.46197,-1.84789 0,-3.80952 0,-5.71428 0,-1.90477 0,-3.80953 0,-5.71429 0,-5.71429 0,-11.42857 0,-17.14286 0,-1.97292 -0.50611,-13.61089 0,-14.28571 5.91147,-7.88196 9.84453,-4.19243 17.14286,-8.57143 2.30986,-1.38592 3.40442,-4.32837 5.71429,-5.71429 9.60357,-5.76214 6.57642,0.0677 14.28571,-5.71428 2.15499,-1.61625 3.55929,-4.09804 5.71429,-5.71429 5.02857,-3.77143 12.11428,-4.8 17.14285,-8.57143 2.15499,-1.61624 3.80953,-3.80952 5.71429,-5.71428 1.90476,-1.90476 3.80952,-3.80952 5.71428,-5.71429 1.90477,-1.90476 4.09805,-3.55929 5.71429,-5.71428 2.55551,-3.40734 2.70259,-8.41688 5.71429,-11.42857 1.50584,-1.50585 4.20843,-1.3513 5.71428,-2.85715 1.50585,-1.50584 1.57939,-4.01061 2.85714,-5.71428 1.61625,-2.15499 3.80953,-3.80953 5.71429,-5.71429 3.80952,-3.80952 7.61905,-7.61905 11.42857,-11.42857 0.95238,-0.95238 1.90476,-1.90476 2.85714,-2.85714 0.95239,-0.95238 2.25481,-1.65247 2.85715,-2.85715 0.42591,-0.85183 -0.42592,-2.0053 0,-2.85714 3.15865,-6.3173 1.77326,-0.88663 5.71428,-2.85714 6.3173,-3.15865 0.88664,-1.77327 2.85715,-5.71429 5.94537,-11.89074 -0.19725,3.05439 5.71428,-2.85714 0.67344,-0.67343 -0.67343,-2.18371 0,-2.85714 0.67344,-0.67344 2.18371,0.67343 2.85714,0 0.67344,-0.67344 -0.67343,-2.18371 0,-2.85715 0.67344,-0.67343 2.00531,0.42592 2.85715,0 2.40935,-1.20467 3.30493,-4.5096 5.71428,-5.71428 1.70367,-0.85184 4.01062,0.85183 5.71429,0 1.20468,-0.60234 1.65246,-2.25481 2.85714,-2.85714 0.85184,-0.42592 2.00531,0.42591 2.85714,0 1.20468,-0.60234 1.65247,-2.25481 2.85715,-2.85715 0.85183,-0.42591 2.1837,0.67344 2.85714,0 0.67344,-0.67343 -0.67344,-2.1837 0,-2.85714 1.34687,-1.34687 4.36742,1.34687 5.71429,0 0.67343,-0.67343 -0.67344,-2.18371 0,-2.85714 0.67343,-0.67344 1.90476,0 2.85714,0 4.7619,0 9.52381,0 14.28571,0"
       id="path4122"
       inkscape:connector-curvature="0" />
  </g>
</svg>
