<?xml version="1.0" encoding="UTF-8" standalone="no"?>
<!-- Created with Inkscape (http://www.inkscape.org/) -->

<svg
   xmlns:dc="http://purl.org/dc/elements/1.1/"
   xmlns:cc="http://creativecommons.org/ns#"
   xmlns:rdf="http://www.w3.org/1999/02/22-rdf-syntax-ns#"
   xmlns:svg="http://www.w3.org/2000/svg"
   xmlns="http://www.w3.org/2000/svg"
   xmlns:sodipodi="http://sodipodi.sourceforge.net/DTD/sodipodi-0.dtd"
   xmlns:inkscape="http://www.inkscape.org/namespaces/inkscape"
   width="210mm"
   height="297mm"
   viewBox="0 0 744.09448819 1052.3622047"
   id="svg2"
   version="1.1"
   inkscape:version="0.91 r13725"
   sodipodi:docname="o.svg">
  <defs
     id="defs4" />
  <sodipodi:namedview
     id="base"
     pagecolor="#ffffff"
     bordercolor="#666666"
     borderopacity="1.0"
     inkscape:pageopacity="0.0"
     inkscape:pageshadow="2"
     inkscape:zoom="0.35"
     inkscape:cx="380.71429"
     inkscape:cy="520"
     inkscape:document-units="px"
     inkscape:current-layer="layer1"
     showgrid="false"
     inkscape:window-width="1920"
     inkscape:window-height="1051"
     inkscape:window-x="0"
     inkscape:window-y="0"
     inkscape:window-maximized="1" />
  <metadata
     id="metadata7">
    <rdf:RDF>
      <cc:Work
         rdf:about="">
        <dc:format>image/svg+xml</dc:format>
        <dc:type
           rdf:resource="http://purl.org/dc/dcmitype/StillImage" />
        <dc:title></dc:title>
      </cc:Work>
    </rdf:RDF>
  </metadata>
  <g
     inkscape:label="Layer 1"
     inkscape:groupmode="layer"
     id="layer1">
    <flowRoot
       xml:space="preserve"
       id="flowRoot3485"
       style="fill:black;stroke:none;stroke-opacity:1;stroke-width:1px;stroke-linejoin:miter;stroke-linecap:butt;fill-opacity:1;font-family:'DejaVu Sans';font-style:normal;font-weight:normal;font-size:7.5px;line-height:125%;letter-spacing:0px;word-spacing:0px;text-anchor:start;text-align:start;writing-mode:lr;-inkscape-font-specification:'DejaVu Sans, Normal';font-stretch:normal;font-variant:normal"><flowRegion
         id="flowRegion3487"><rect
           id="rect3489"
           width="80"
           height="105.71429"
           x="137.14285"
           y="323.79077" /></flowRegion><flowPara
         id="flowPara3491"></flowPara></flowRoot>    <path
       style="fill:none;fill-rule:evenodd;stroke:#000000;stroke-width:1px;stroke-linecap:butt;stroke-linejoin:miter;stroke-opacity:1"
       d="m 342.85714,372.36221 -8.57143,105.71428 0,51.42857 c 0,17.14286 0.55271,34.29463 0,51.42857 -0.40035,12.41108 -1.67984,24.78127 -2.85714,37.14286 -0.72081,7.5685 -3.74876,31.15515 -5.71428,40 -0.65333,2.93998 -2.36203,5.60071 -2.85715,8.57143 -0.46971,2.81827 0.56033,5.76977 0,8.57143 -0.41764,2.08823 -2.34064,3.64828 -2.85714,5.71428 -0.46197,1.84789 0.46197,3.8664 0,5.71429 -1.033,4.13201 -4.13247,7.47402 -5.71429,11.42857 -1.11851,2.79629 -2.1267,5.64966 -2.85714,8.57143 -1.70105,6.80419 4.22958,-2.05865 -2.85714,8.57143 -1.49422,2.24132 -4.50961,3.30493 -5.71429,5.71428 -0.42591,0.85184 0.67344,2.18371 0,2.85715 -4.48663,4.48663 -16.80063,2.85714 -22.85714,2.85714 l -5.71429,0 c -1.90476,0 -4.01061,0.85183 -5.71428,0 -2.40936,-1.20468 -3.80953,-3.80952 -5.71429,-5.71429 l -8.57143,-8.57143 c -0.95238,-0.95238 -2.43122,-1.57939 -2.85714,-2.85714 -0.60234,-1.80701 0.60234,-3.90727 0,-5.71428 -0.42592,-1.27776 -2.43122,-1.57939 -2.85714,-2.85715 -0.60234,-1.80701 0,-3.80952 0,-5.71428 l 0,-14.28572 c 0,-1.16792 -0.50197,-18.74508 0,-20 1.2753,-3.18825 3.28618,-6.14332 5.71428,-8.57143 8.10616,-8.10615 9.50842,-4.63708 20,-8.57142 47.45414,-17.79531 -18.68382,5.15021 20,-11.42858 3.60927,-1.54682 7.81931,-1.31031 11.42858,-2.85714 6.31242,-2.70532 11.00018,-8.35723 17.14285,-11.42857 2.69374,-1.34687 5.77514,-1.73863 8.57143,-2.85714 1.97727,-0.79091 3.80953,-1.90476 5.71429,-2.85715 l 17.14285,-8.57142 11.42858,-5.71429 c 1.90476,-0.95238 3.94236,-1.67586 5.71428,-2.85714 1.12067,-0.74711 1.65247,-2.25481 2.85714,-2.85715 0.85184,-0.42591 2.00531,0.42592 2.85715,0 2.40935,-1.20467 3.30493,-4.5096 5.71428,-5.71428 0.85184,-0.42592 2.18371,0.67343 2.85715,0 0.67343,-0.67344 -0.67344,-2.18371 0,-2.85714 0.67343,-0.67344 2.1837,0.67343 2.85714,0 0.67343,-0.67344 -0.67344,-2.18371 0,-2.85715 0.8847,-0.8847 13.40101,0.88471 14.28571,0 0.67344,-0.67343 -0.67343,-2.1837 0,-2.85714 0.67344,-0.67343 2.18371,0.67344 2.85715,0 0.67343,-0.67343 -0.67344,-2.18371 0,-2.85714 0.67343,-0.67344 2.1837,0.67343 2.85714,0 0.67343,-0.67344 -0.67344,-2.18371 0,-2.85715 0.67343,-0.67343 2.18371,0.67344 2.85714,0 0.67344,-0.67343 -0.67343,-2.1837 0,-2.85714 1.42857,-1.42857 7.14286,1.42857 8.57143,0 0.67344,-0.67343 -0.67344,-2.18371 0,-2.85714 0.67344,-0.67344 2.00531,0.42592 2.85714,0 3.42857,-1.71429 5.14286,-6.85714 8.57143,-8.57143 0.85184,-0.42592 2.18371,0.67344 2.85714,0 0.67344,-0.67343 -0.42591,-2.00531 0,-2.85714 5.94538,-11.89075 -0.19724,3.05438 5.71429,-2.85715 0,-4.20401 -0.67344,-2.1837 2.85714,-5.71428"
       id="path3538"
       inkscape:connector-curvature="0"
       sodipodi:nodetypes="ccssssssssssssssssssssssssssssssscsscsscccsscsccscssssscscc" />
    <path
       style="fill:none;fill-rule:evenodd;stroke:#000000;stroke-width:1px;stroke-linecap:butt;stroke-linejoin:miter;stroke-opacity:1"
       d="m 185.71429,352.3622 c -10.39803,-35.84057 10.84322,-82.00076 50.11431,-87.4978 118.93934,-63.27607 107.6245,138.93571 106.06111,96.08578 50.32318,-121.87485 144.47438,-147.0962 158.10994,-14.30226"
       id="path3540"
       inkscape:connector-curvature="0"
       sodipodi:nodetypes="cccc" />
  </g>
</svg>
