<?xml version="1.0" encoding="UTF-8" standalone="no"?>
<!-- Created with Inkscape (http://www.inkscape.org/) -->

<svg
   xmlns:dc="http://purl.org/dc/elements/1.1/"
   xmlns:cc="http://creativecommons.org/ns#"
   xmlns:rdf="http://www.w3.org/1999/02/22-rdf-syntax-ns#"
   xmlns:svg="http://www.w3.org/2000/svg"
   xmlns="http://www.w3.org/2000/svg"
   xmlns:sodipodi="http://sodipodi.sourceforge.net/DTD/sodipodi-0.dtd"
   xmlns:inkscape="http://www.inkscape.org/namespaces/inkscape"
   width="210mm"
   height="297mm"
   viewBox="0 0 744.09448819 1052.3622047"
   id="svg2"
   version="1.1"
   inkscape:version="0.91 r13725"
   sodipodi:docname="p.svg">
  <defs
     id="defs4" />
  <sodipodi:namedview
     id="base"
     pagecolor="#ffffff"
     bordercolor="#666666"
     borderopacity="1.0"
     inkscape:pageopacity="0.0"
     inkscape:pageshadow="2"
     inkscape:zoom="0.35"
     inkscape:cx="380.71429"
     inkscape:cy="520"
     inkscape:document-units="px"
     inkscape:current-layer="layer1"
     showgrid="false"
     inkscape:window-width="1920"
     inkscape:window-height="1051"
     inkscape:window-x="0"
     inkscape:window-y="0"
     inkscape:window-maximized="1" />
  <metadata
     id="metadata7">
    <rdf:RDF>
      <cc:Work
         rdf:about="">
        <dc:format>image/svg+xml</dc:format>
        <dc:type
           rdf:resource="http://purl.org/dc/dcmitype/StillImage" />
        <dc:title></dc:title>
      </cc:Work>
    </rdf:RDF>
  </metadata>
  <g
     inkscape:label="Layer 1"
     inkscape:groupmode="layer"
     id="layer1">
    <flowRoot
       xml:space="preserve"
       id="flowRoot3485"
       style="fill:black;stroke:none;stroke-opacity:1;stroke-width:1px;stroke-linejoin:miter;stroke-linecap:butt;fill-opacity:1;font-family:'DejaVu Sans';font-style:normal;font-weight:normal;font-size:7.5px;line-height:125%;letter-spacing:0px;word-spacing:0px;text-anchor:start;text-align:start;writing-mode:lr;-inkscape-font-specification:'DejaVu Sans, Normal';font-stretch:normal;font-variant:normal"><flowRegion
         id="flowRegion3487"><rect
           id="rect3489"
           width="80"
           height="105.71429"
           x="137.14285"
           y="323.79077" /></flowRegion><flowPara
         id="flowPara3491"></flowPara></flowRoot>    <path
       style="fill:none;fill-rule:evenodd;stroke:#000000;stroke-width:1px;stroke-linecap:butt;stroke-linejoin:miter;stroke-opacity:1"
       d="m 357.14286,278.07649 c 0,43.80952 0,87.61905 0,131.42857 0,81.90476 0,163.80953 0,245.71429 0,25.71428 0,51.42857 0,77.14285 0,8.57143 0,17.14286 0,25.71429 0,1.90476 0,3.80952 0,5.71429 0,0.95238 0.95238,2.85714 0,2.85714 -0.95238,0 0,-1.90476 0,-2.85714"
       id="path3579"
       inkscape:connector-curvature="0" />
    <path
       style="fill:none;fill-rule:evenodd;stroke:#000000;stroke-width:1px;stroke-linecap:butt;stroke-linejoin:miter;stroke-opacity:1"
       d="m 285.71429,343.79078 c 0,39.04762 0,78.09523 0,117.14285 0,61.90477 0,123.80953 0,185.71429 0,7.61905 0,15.23809 0,22.85714 0,1.28674 -0.43477,7.7019 0,8.57143 0.60233,1.20468 2.2548,1.65247 2.85714,2.85714 0.42592,0.85184 -0.67344,2.18371 0,2.85715 0.67343,0.67343 1.90476,0 2.85714,0 1.90476,0.95238 4.20844,1.35129 5.71429,2.85714 0.67343,0.67343 -0.67344,2.18371 0,2.85714 7.21686,7.21687 3.29367,1.09789 8.57143,2.85714 2.0203,0.67344 3.64828,2.34065 5.71428,2.85715 3.69578,0.92394 7.73279,-0.92395 11.42857,0 2.06601,0.5165 3.69398,2.18371 5.71429,2.85714 0.90351,0.30117 1.95363,-0.30117 2.85714,0 2.02031,0.67344 3.69398,2.18371 5.71429,2.85714 0.90351,0.30117 1.90476,0 2.85714,0 1.90476,0 3.80952,0 5.71429,0 4.7619,0 9.52381,0 14.28571,0 18.09524,0 36.19048,0 54.28571,0 6.66667,0 13.33334,0 20,0 0.95239,0 1.90477,0 2.85715,0 0.95238,0 2.1837,0.67344 2.85714,0 1.96905,-1.96905 6.4764,-14.00031 8.57143,-17.14285 0.74711,-1.12067 2.43122,-1.57939 2.85714,-2.85715 0.60234,-1.80701 -0.60234,-3.90727 0,-5.71428 0.42592,-1.27776 2.25481,-1.65247 2.85714,-2.85715 0.85184,-1.70367 -0.85183,-4.01061 0,-5.71428 0.60234,-1.20468 2.25481,-1.65247 2.85715,-2.85714 0.85183,-1.70367 -1.34687,-4.36742 0,-5.71429 0.67343,-0.67343 2.1837,0.67344 2.85714,0 0.67344,-0.67343 0,-1.90476 0,-2.85714 0,-0.95238 0,-1.90476 0,-2.85715 0,-11.42857 0,-22.85714 0,-34.28571 0,-0.95238 0,-1.90476 0,-2.85714 0,-0.95238 0.67344,-2.18371 0,-2.85715 -0.67344,-0.67343 -2.00531,0.42592 -2.85714,0 -1.20468,-0.60233 -1.65247,-2.2548 -2.85715,-2.85714 -0.85183,-0.42592 -2.0053,0.42592 -2.85714,0 -1.20468,-0.60234 -1.57939,-2.43122 -2.85714,-2.85714 -1.80702,-0.60234 -3.80953,0 -5.71429,0 -0.95238,0 -2.0053,0.42592 -2.85714,0 -1.20468,-0.60234 -1.65247,-2.25481 -2.85714,-2.85714 -0.85184,-0.42592 -2.00531,0.42591 -2.85715,0 -1.20467,-0.60234 -1.65246,-2.25481 -2.85714,-2.85715 -1.79578,-0.89789 -9.63279,0.89789 -11.42857,0 -1.20468,-0.60234 -1.65247,-2.2548 -2.85714,-2.85714 -0.85184,-0.42592 -1.95364,0.30117 -2.85715,0 -2.0203,-0.67343 -3.69398,-2.18371 -5.71428,-2.85714 -1.65507,-0.55169 -8.95262,0 -11.42857,0 -7.61905,0 -15.2381,0 -22.85715,0 -16.19047,0 -32.38095,0 -48.57142,0 -5.71429,0 -11.42858,0 -17.14286,0 -0.95238,0 -2.85714,0.95238 -2.85714,0 0,-0.95238 1.90476,0 2.85714,0"
       id="path3581"
       inkscape:connector-curvature="0" />
  </g>
</svg>
