<?xml version="1.0" encoding="UTF-8" standalone="no"?>
<!-- Created with Inkscape (http://www.inkscape.org/) -->

<svg
   xmlns:dc="http://purl.org/dc/elements/1.1/"
   xmlns:cc="http://creativecommons.org/ns#"
   xmlns:rdf="http://www.w3.org/1999/02/22-rdf-syntax-ns#"
   xmlns:svg="http://www.w3.org/2000/svg"
   xmlns="http://www.w3.org/2000/svg"
   xmlns:sodipodi="http://sodipodi.sourceforge.net/DTD/sodipodi-0.dtd"
   xmlns:inkscape="http://www.inkscape.org/namespaces/inkscape"
   width="210mm"
   height="297mm"
   viewBox="0 0 744.09448819 1052.3622047"
   id="svg2"
   version="1.1"
   inkscape:version="0.91 r13725"
   sodipodi:docname="r.svg">
  <defs
     id="defs4" />
  <sodipodi:namedview
     id="base"
     pagecolor="#ffffff"
     bordercolor="#666666"
     borderopacity="1.0"
     inkscape:pageopacity="0.0"
     inkscape:pageshadow="2"
     inkscape:zoom="0.35"
     inkscape:cx="380.71429"
     inkscape:cy="520"
     inkscape:document-units="px"
     inkscape:current-layer="layer1"
     showgrid="false"
     inkscape:window-width="1920"
     inkscape:window-height="1051"
     inkscape:window-x="0"
     inkscape:window-y="0"
     inkscape:window-maximized="1" />
  <metadata
     id="metadata7">
    <rdf:RDF>
      <cc:Work
         rdf:about="">
        <dc:format>image/svg+xml</dc:format>
        <dc:type
           rdf:resource="http://purl.org/dc/dcmitype/StillImage" />
        <dc:title></dc:title>
      </cc:Work>
    </rdf:RDF>
  </metadata>
  <g
     inkscape:label="Layer 1"
     inkscape:groupmode="layer"
     id="layer1">
    <path
       style="fill:none;fill-rule:evenodd;stroke:#000000;stroke-width:1px;stroke-linecap:butt;stroke-linejoin:miter;stroke-opacity:1"
       d="m 257.14286,280.93363 c 0,203.80953 0,407.61905 0,611.42857"
       id="path3378"
       inkscape:connector-curvature="0" />
    <path
       style="fill:none;fill-rule:evenodd;stroke:#000000;stroke-width:1px;stroke-linecap:butt;stroke-linejoin:miter;stroke-opacity:1"
       d="m 265.71429,518.07649 c 3.94593,5.95537 12.02777,1.57837 17.14285,2.85714 2.06601,0.5165 3.64828,2.34065 5.71429,2.85715 2.17276,0.54319 11.89317,0 14.28571,0 7.61905,0 15.2381,0 22.85715,0 23.80952,0 47.61904,0 71.42857,0 8.57143,0 17.14285,0 25.71428,0 0.67895,0 10.7882,0.32018 11.42857,0 5.43465,-2.71733 1.37829,-6.99202 2.85715,-11.42858 0.42591,-1.27775 2.43122,-1.57939 2.85714,-2.85714 0.90351,-2.71052 0,-5.71428 0,-8.57143 0,-4.7619 0,-9.52381 0,-14.28571 0,-17.14286 0,-34.28572 0,-51.42857 0,-1.04925 0.11498,-11.3136 0,-11.42857 -1.50585,-1.50585 -3.94236,-1.67586 -5.71429,-2.85715 -1.12066,-0.74711 -1.57939,-2.43122 -2.85714,-2.85714 -1.80701,-0.60234 -3.86639,0.46197 -5.71428,0 -2.06601,-0.5165 -3.69398,-2.18371 -5.71429,-2.85714 -0.90351,-0.30117 -1.90476,0 -2.85714,0 -1.90476,0 -3.80953,0 -5.71429,0 -6.66667,0 -13.33333,0 -20,0 -5.71428,0 -11.42857,0 -17.14286,0 -2.85714,0 -6.01592,-1.27776 -8.57142,0 -0.85184,0.42592 0,1.90476 0,2.85714 -1.90477,0.95238 -3.69398,2.18371 -5.71429,2.85714 -0.90351,0.30117 -2.18371,-0.67343 -2.85714,0 -0.67344,0.67344 0.42591,2.00531 0,2.85715 -1.71429,3.42857 -6.85715,5.14285 -8.57143,8.57142 -0.42592,0.85184 0.30117,1.95364 0,2.85715 -1.34687,4.04061 -3.80953,7.61905 -5.71429,11.42857 -0.95238,1.90476 -2.34064,3.64828 -2.85714,5.71428 -0.46197,1.8479 0.46197,3.8664 0,5.71429 -0.5165,2.066 -2.34064,3.64828 -2.85714,5.71429 -0.46198,1.84789 0.46197,3.86639 0,5.71428 -0.5165,2.06601 -2.34064,3.64828 -2.85715,5.71429 -0.46197,1.84789 0.37356,3.84651 0,5.71428 -0.59064,2.95321 -2.2665,5.61822 -2.85714,8.57143 -0.74711,3.73555 0,7.61905 0,11.42857 0,8.57143 0,17.14286 0,25.71429 0,23.80952 0,47.61905 0,71.42857 0,24.76191 0,49.52381 0,74.28571 0,6.66667 0,13.33334 0,20 0,1.90477 0,3.80953 0,5.71429 0,0.95238 -0.42592,2.00531 0,2.85714 1.71429,3.42857 6.85714,5.14286 8.57143,8.57143 0.42592,0.85184 0,1.90476 0,2.85714 0.95238,1.90477 1.67586,3.94237 2.85714,5.71429 1.49422,2.24133 4.50961,3.30493 5.71429,5.71429 0.42592,0.85183 -0.67344,2.1837 0,2.85714 1.50585,1.50585 4.533,1.08522 5.71428,2.85714 1.05658,1.58486 -0.60233,3.90727 0,5.71429 0.42592,1.27775 2.25481,1.65246 2.85715,2.85714 0.42591,0.85184 -0.42592,2.00531 0,2.85714 1.20467,2.40936 4.50961,3.30493 5.71428,5.71429 0.42592,0.85183 -0.42591,2.00531 0,2.85714 2.63002,5.26004 5.94141,0.45424 8.57143,5.71429 0.42592,0.85183 -0.52828,2.06471 0,2.85714 0.0297,0.0446 13.2634,13.77455 14.28572,14.28571 0.85183,0.42592 2.1837,-0.67343 2.85714,0 0.67343,0.67344 -0.67344,2.18371 0,2.85715 0.67343,0.67343 2.00531,-0.42592 2.85714,0 1.20468,0.60234 1.65247,2.2548 2.85714,2.85714 0.85184,0.42592 2.18371,-0.67343 2.85715,0 3.80952,3.80952 -6.06092,2.7416 2.85714,5.71429 1.80702,0.60233 4.01061,-0.85184 5.71429,0 0.85183,0.42591 -0.42592,2.0053 0,2.85714 0.60233,1.20468 1.65246,2.2548 2.85714,2.85714 0.85183,0.42592 2.00531,-0.42592 2.85714,0 1.20468,0.60234 1.65247,2.25481 2.85714,2.85714 0.85184,0.42592 1.90477,0 2.85715,0 0.95238,0.95239 1.65246,2.25481 2.85714,2.85715 1.70367,0.85183 4.01061,-0.85184 5.71429,0 1.20467,0.60234 1.65246,2.2548 2.85714,2.85714 1.03324,0.51662 12.29846,0 14.28571,0 12.54458,0 15.37896,0 31.42857,0 5.71429,0 11.42858,0 17.14286,0 0.95238,0 2.18371,0.67344 2.85714,0 1.34687,-1.34687 -1.34687,-4.36742 0,-5.71429 0.67344,-0.67343 2.18371,0.67344 2.85715,0 1.34687,-1.34687 -0.85184,-4.01061 0,-5.71428 1.20467,-2.40936 4.50961,-3.30493 5.71428,-5.71429 0.85184,-1.70367 -0.85183,-4.01061 0,-5.71428 0.60234,-1.20468 2.25481,-1.65247 2.85715,-2.85715 0.42591,-0.85183 -0.42592,-2.0053 0,-2.85714 1.20467,-2.40935 4.5096,-3.30493 5.71428,-5.71428 0.42592,-0.85184 0,-1.90477 0,-2.85715 0,-0.95238 0,-1.90476 0,-2.85714"
       id="path3380"
       inkscape:connector-curvature="0" />
  </g>
</svg>
