<?xml version="1.0" encoding="UTF-8" standalone="no"?>
<!-- Created with Inkscape (http://www.inkscape.org/) -->

<svg
   xmlns:dc="http://purl.org/dc/elements/1.1/"
   xmlns:cc="http://creativecommons.org/ns#"
   xmlns:rdf="http://www.w3.org/1999/02/22-rdf-syntax-ns#"
   xmlns:svg="http://www.w3.org/2000/svg"
   xmlns="http://www.w3.org/2000/svg"
   xmlns:sodipodi="http://sodipodi.sourceforge.net/DTD/sodipodi-0.dtd"
   xmlns:inkscape="http://www.inkscape.org/namespaces/inkscape"
   width="210mm"
   height="297mm"
   viewBox="0 0 744.09448819 1052.3622047"
   id="svg2"
   version="1.1"
   inkscape:version="0.91 r13725"
   sodipodi:docname="s.svg">
  <defs
     id="defs4" />
  <sodipodi:namedview
     id="base"
     pagecolor="#ffffff"
     bordercolor="#666666"
     borderopacity="1.0"
     inkscape:pageopacity="0.0"
     inkscape:pageshadow="2"
     inkscape:zoom="0.35"
     inkscape:cx="380.71429"
     inkscape:cy="520"
     inkscape:document-units="px"
     inkscape:current-layer="layer1"
     showgrid="false"
     inkscape:window-width="1920"
     inkscape:window-height="1051"
     inkscape:window-x="0"
     inkscape:window-y="0"
     inkscape:window-maximized="1" />
  <metadata
     id="metadata7">
    <rdf:RDF>
      <cc:Work
         rdf:about="">
        <dc:format>image/svg+xml</dc:format>
        <dc:type
           rdf:resource="http://purl.org/dc/dcmitype/StillImage" />
        <dc:title></dc:title>
      </cc:Work>
    </rdf:RDF>
  </metadata>
  <g
     inkscape:label="Layer 1"
     inkscape:groupmode="layer"
     id="layer1">
    <flowRoot
       xml:space="preserve"
       id="flowRoot3485"
       style="fill:black;stroke:none;stroke-opacity:1;stroke-width:1px;stroke-linejoin:miter;stroke-linecap:butt;fill-opacity:1;font-family:'DejaVu Sans';font-style:normal;font-weight:normal;font-size:7.5px;line-height:125%;letter-spacing:0px;word-spacing:0px;text-anchor:start;text-align:start;writing-mode:lr;-inkscape-font-specification:'DejaVu Sans, Normal';font-stretch:normal;font-variant:normal"><flowRegion
         id="flowRegion3487"><rect
           id="rect3489"
           width="80"
           height="105.71429"
           x="137.14285"
           y="323.79077" /></flowRegion><flowPara
         id="flowPara3491"></flowPara></flowRoot>    <path
       style="fill:none;fill-rule:evenodd;stroke:#000000;stroke-width:1px;stroke-linecap:butt;stroke-linejoin:miter;stroke-opacity:1"
       d="m 340,346.64792 c 0,104.7619 0,209.52381 0,314.28571 0,22.85715 0,45.71429 0,68.57143 0,6.66667 0,13.33334 0,20 0,2.85714 0,5.71429 0,8.57143 0,0.95238 0.95238,2.85714 0,2.85714 -0.95238,0 0,-1.90476 0,-2.85714"
       id="path3635"
       inkscape:connector-curvature="0" />
    <path
       style="fill:none;fill-rule:evenodd;stroke:#000000;stroke-width:1px;stroke-linecap:butt;stroke-linejoin:miter;stroke-opacity:1"
       d="m 340,580.93363 c -4.51754,8.79072 3.01169,19.53635 0,28.57143 -0.85184,2.55551 -4.32837,3.40442 -5.71429,5.71429 -13.93908,23.23181 5.84966,-3.0602 -5.71428,14.28571 -1.49422,2.24133 -4.22007,3.47296 -5.71429,5.71429 -1.18128,1.77192 -1.67586,3.94236 -2.85714,5.71428 -1.25138,1.87707 -8.05596,7.02503 -8.57143,8.57143 -0.60234,1.80702 0.60234,3.90727 0,5.71429 -1.89519,5.68557 -2.66667,1.33333 -5.71428,2.85714 -1.20468,0.60234 -1.90477,1.90476 -2.85715,2.85714 -3.80952,3.80953 -7.61904,7.61905 -11.42857,11.42857 -0.95238,0.95239 -1.90476,1.90477 -2.85714,2.85715 -0.95238,0.95238 -1.65247,2.2548 -2.85714,2.85714 -0.85184,0.42592 -2.00531,-0.42592 -2.85715,0 -2.40935,1.20468 -3.30493,4.50961 -5.71428,5.71429 -0.85184,0.42591 -2.00531,-0.42592 -2.85715,0 -1.20467,0.60233 -1.65246,2.2548 -2.85714,2.85714 -0.85183,0.42592 -1.90476,0 -2.85714,0 -1.90476,0 -3.80953,0 -5.71429,0 -5.71428,0 -11.42857,0 -17.14285,0 -0.95239,0 -1.90477,0 -2.85715,0 -0.95238,0 -2.43122,0.85183 -2.85714,0 -2.85714,-5.71429 1.42857,-4.28572 0,-8.57143 -0.67344,-2.0203 -2.34064,-3.64828 -2.85714,-5.71429 -0.46198,-1.84789 0,-3.80952 0,-5.71428 0,-5.71429 0,-11.42857 0,-17.14286 0,-8.57143 0,-17.14286 0,-25.71428 0,-0.95238 0,-1.90477 0,-2.85715 0,-0.95238 -0.67344,-2.1837 0,-2.85714 0.67343,-0.67343 1.95363,0.30117 2.85714,0 2.02031,-0.67343 4.20844,-1.3513 5.71429,-2.85714 3.80952,-3.80953 -6.06092,-2.7416 2.85714,-5.71429 1.80701,-0.60234 3.86639,0.46197 5.71428,0 2.06601,-0.5165 3.64829,-2.34064 5.71429,-2.85714 1.84789,-0.46197 3.90727,0.60234 5.71429,0 1.27775,-0.42592 1.57939,-2.43123 2.85714,-2.85714 1.80701,-0.60234 3.90727,0.60233 5.71428,0 1.27776,-0.42592 1.57939,-2.43123 2.85715,-2.85715 3.61403,-1.20467 7.81454,1.20468 11.42857,0 1.27775,-0.42591 1.57939,-2.43122 2.85714,-2.85714 1.80702,-0.60234 3.80953,0 5.71429,0 2.99096,0 14.81942,0.58086 17.14285,0 2.06601,-0.5165 3.69398,-2.18371 5.71429,-2.85714 1.612,-0.53733 6.69398,0 8.57143,0 7.61905,0 15.23809,0 22.85714,0 1.90476,0 3.80953,0 5.71429,0 0.95238,0 1.95363,0.30117 2.85714,0 2.02031,-0.67344 3.64828,-2.34064 5.71429,-2.85715 2.77183,-0.69295 5.8609,0.90351 8.57142,0 2.02031,-0.67343 3.69398,-2.1837 5.71429,-2.85714 2.57143,-0.85714 6,0.85714 8.57143,0 1.27775,-0.42592 1.57939,-2.43122 2.85714,-2.85714 1.80702,-0.60234 3.80953,0 5.71429,0 1.90476,-0.95238 3.69398,-2.18371 5.71428,-2.85714 0.90351,-0.30117 1.95364,0.30117 2.85715,0 2.0203,-0.67344 3.69398,-2.18371 5.71428,-2.85715 0.90351,-0.30117 1.95364,0.30117 2.85714,0 2.02031,-0.67343 3.69398,-2.1837 5.71429,-2.85714 8.50523,-2.83508 -5.8623,6.76534 8.57143,-2.85714 2.24133,-1.49422 3.30493,-4.50961 5.71428,-5.71429 0.85184,-0.42592 2.00531,0.42592 2.85715,0 1.20467,-0.60234 1.90476,-1.90476 2.85714,-2.85714 0.95238,-0.95238 2.2548,-1.65247 2.85714,-2.85714 0.42592,-0.85184 -0.42591,-2.00531 0,-2.85715 0.60234,-1.20467 1.90476,-1.90476 2.85715,-2.85714 0.95238,-0.95238 1.65246,-2.2548 2.85714,-2.85714 0.85183,-0.42592 2.00531,0.42592 2.85714,0 6.3173,-3.15865 0.88663,-1.77327 2.85714,-5.71429 0.60234,-1.20468 1.90477,-1.90476 2.85715,-2.85714 3.269,-3.26901 3.98454,-3.38221 5.71428,-8.57143 0.30117,-0.90351 0,-1.90476 0,-2.85714 0.95238,-0.95238 2.25481,-1.65247 2.85715,-2.85715 0.42591,-0.85183 -0.42592,-2.0053 0,-2.85714 0.60233,-1.20468 2.2548,-1.65246 2.85714,-2.85714 0.85183,-1.70367 -0.85184,-4.01062 0,-5.71429 0.60234,-1.20467 2.2548,-1.65246 2.85714,-2.85714 0.8201,-1.64019 -0.60801,-11.85368 0,-14.28571 -1.72208,-5.17126 4.62841,-5.31379 5.71429,-8.57143 0.5457,-1.63712 0,-11.60338 0,-14.28572 0,-12.38095 0,-24.7619 0,-37.14285 0,-2.02515 0.36936,-16.40415 0,-17.14286 -0.60234,-1.20468 -1.57939,-2.43123 -2.85715,-2.85714 -1.47192,-0.49064 -16.97765,0 -20,0 -4.7619,0 -9.52381,0 -14.28571,0 -1.87745,0 -6.95943,-0.53734 -8.57143,0 -8.16326,2.72108 -4.21769,2.04081 -8.57143,8.57142 -1.73393,2.6009 -7.30523,6.03904 -8.57143,8.57143 -0.42591,0.85184 0.67344,2.18371 0,2.85715 -5.91153,5.91153 0.23109,-9.03361 -5.71428,2.85714 -0.42592,0.85183 0.42592,2.00531 0,2.85714 -0.60234,1.20468 -1.90476,1.90476 -2.85714,2.85714 -3.26901,3.26901 -3.98455,3.38221 -5.71429,8.57143 -0.60234,1.80702 0.85184,4.01062 0,5.71429 -0.60234,1.20468 -2.2548,1.65246 -2.85714,2.85714 -0.42592,0.85184 0.30117,1.95364 0,2.85714 -0.67344,2.02031 -2.18371,3.69399 -2.85715,5.71429 -0.30117,0.90351 0.30117,1.95364 0,2.85714 -0.67343,2.02031 -2.1837,3.69398 -2.85714,5.71429 -0.90351,2.71052 0.69296,5.79959 0,8.57143 -0.5165,2.066 -2.34064,3.64828 -2.85714,5.71428 -0.92395,3.69578 1.20468,7.81454 0,11.42857 -0.42592,1.27776 -2.43123,1.57939 -2.85714,2.85715 0,18.9519 1.34687,-4.04061 -2.85715,8.57143 -0.60234,1.80701 0,3.80952 0,5.71428 0,0.95238 0.42592,2.00531 0,2.85714 -0.60234,1.20468 -2.2548,1.65247 -2.85714,2.85715 -0.42592,0.85183 0,1.90476 0,2.85714 0,4.76191 0,9.52381 0,14.28571 0,1.90477 0.60234,3.90727 0,5.71429 -0.67344,2.02031 -2.18371,3.69398 -2.85714,5.71429 -0.89725,2.69175 0.92621,15.29044 0,17.14285 -1.20468,2.40936 -4.50961,3.30493 -5.71429,5.71429 -0.90124,1.80248 0.90124,12.48323 0,14.28571 -0.60234,1.20468 -2.2548,1.65247 -2.85714,2.85715 -0.85184,1.70367 0.85183,4.01061 0,5.71428 -0.60234,1.20468 -2.25481,1.65247 -2.85714,2.85714 -0.43477,0.86953 0,7.2847 0,8.57143 0,9.52381 0,19.04762 0,28.57143 0,20.95238 0,41.90476 0,62.85714 0,20 0,40 0,60 0,1.04925 -0.11498,11.3136 0,11.42858 0.67343,0.67343 1.90476,0 2.85714,0 5.71428,0 11.42857,0 17.14286,0 5.71428,0 11.42857,0 17.14285,0 2.85715,0 5.71429,0 8.57143,0 0.95238,0 2.00531,0.42591 2.85714,0 7.16847,-3.58423 11.63935,-8.7822 17.14286,-14.28572 1.90476,-1.90476 3.47296,-4.22007 5.71429,-5.71428 1.77192,-1.18129 3.94236,-1.67586 5.71428,-2.85715 2.24133,-1.49421 3.30493,-4.50961 5.71429,-5.71428 0.85183,-0.42592 2.00531,0.42592 2.85714,0 2.40936,-1.20468 3.30493,-4.50961 5.71429,-5.71429 1.70367,-0.85183 4.01061,0.85184 5.71428,0 1.20468,-0.60234 1.65247,-2.2548 2.85715,-2.85714 0.85183,-0.42592 2.1837,0.67343 2.85714,0 0.67343,-0.67344 -0.42592,-2.00531 0,-2.85714 2.17854,-4.35708 7.50822,-2.85715 11.42857,-2.85715"
       id="path3641"
       inkscape:connector-curvature="0" />
  </g>
</svg>
