<?xml version="1.0" encoding="UTF-8" standalone="no"?>
<!-- Created with Inkscape (http://www.inkscape.org/) -->

<svg
   xmlns:dc="http://purl.org/dc/elements/1.1/"
   xmlns:cc="http://creativecommons.org/ns#"
   xmlns:rdf="http://www.w3.org/1999/02/22-rdf-syntax-ns#"
   xmlns:svg="http://www.w3.org/2000/svg"
   xmlns="http://www.w3.org/2000/svg"
   xmlns:sodipodi="http://sodipodi.sourceforge.net/DTD/sodipodi-0.dtd"
   xmlns:inkscape="http://www.inkscape.org/namespaces/inkscape"
   width="210mm"
   height="297mm"
   viewBox="0 0 744.09448819 1052.3622047"
   id="svg2"
   version="1.1"
   inkscape:version="0.91 r13725"
   sodipodi:docname="v.svg">
  <defs
     id="defs4" />
  <sodipodi:namedview
     id="base"
     pagecolor="#ffffff"
     bordercolor="#666666"
     borderopacity="1.0"
     inkscape:pageopacity="0.0"
     inkscape:pageshadow="2"
     inkscape:zoom="0.35"
     inkscape:cx="380.71429"
     inkscape:cy="520"
     inkscape:document-units="px"
     inkscape:current-layer="layer1"
     showgrid="false"
     inkscape:window-width="1920"
     inkscape:window-height="1051"
     inkscape:window-x="0"
     inkscape:window-y="0"
     inkscape:window-maximized="1" />
  <metadata
     id="metadata7">
    <rdf:RDF>
      <cc:Work
         rdf:about="">
        <dc:format>image/svg+xml</dc:format>
        <dc:type
           rdf:resource="http://purl.org/dc/dcmitype/StillImage" />
        <dc:title></dc:title>
      </cc:Work>
    </rdf:RDF>
  </metadata>
  <g
     inkscape:label="Layer 1"
     inkscape:groupmode="layer"
     id="layer1">
    <flowRoot
       xml:space="preserve"
       id="flowRoot3485"
       style="fill:black;stroke:none;stroke-opacity:1;stroke-width:1px;stroke-linejoin:miter;stroke-linecap:butt;fill-opacity:1;font-family:'DejaVu Sans';font-style:normal;font-weight:normal;font-size:7.5px;line-height:125%;letter-spacing:0px;word-spacing:0px;text-anchor:start;text-align:start;writing-mode:lr;-inkscape-font-specification:'DejaVu Sans, Normal';font-stretch:normal;font-variant:normal"><flowRegion
         id="flowRegion3487"><rect
           id="rect3489"
           width="80"
           height="105.71429"
           x="137.14285"
           y="323.79077" /></flowRegion><flowPara
         id="flowPara3491"></flowPara></flowRoot>    <path
       style="fill:none;fill-rule:evenodd;stroke:#000000;stroke-width:1px;stroke-linecap:butt;stroke-linejoin:miter;stroke-opacity:1"
       d="m 162.85714,778.07649 c 4.76191,-1.90476 10.23734,-2.56555 14.28572,-5.71429 4.81364,-3.74394 8.04589,-9.21169 11.42857,-14.28571 8.06393,-12.0959 15.48635,-24.61252 22.85714,-37.14286 11.67922,-19.85467 23.01581,-39.91016 34.28572,-60 10.63558,-18.95908 20.2442,-38.50224 31.42857,-57.14285 8.83352,-14.72255 19.287,-28.41471 28.57143,-42.85715 7.86124,-12.2286 14.66765,-25.1316 22.85714,-37.14285 6.11717,-8.97185 14.20147,-16.53328 20,-25.71429 5.68593,-9.00272 9.32647,-19.14887 14.28571,-28.57143 4.56682,-8.67694 9.37288,-17.22847 14.28572,-25.71428 5.56479,-9.61193 12.38828,-18.534 17.14285,-28.57143 3.8678,-8.16535 4.95,-17.43673 8.57143,-25.71429 6.15525,-14.06913 16.4218,-26.05676 22.85715,-40 12.35797,-37.07392 -1.96157,-0.13869 14.28571,-28.57143 1.49422,-2.61488 1.30764,-5.98892 2.85714,-8.57143 4.07305,-6.7884 8.57143,-4.69473 8.57143,-14.28571 0,-6.70051 -0.67343,1.34687 2.85714,-5.71429 0.42592,-0.85183 0,-3.80952 0,-2.85714 0,20.95238 0,41.90476 0,62.85714 0,5.71429 0,11.42858 0,17.14286 0,7.61905 1.00697,15.30493 0,22.85714 -0.91634,6.87262 -3.92779,13.30067 -5.71428,20 -2.02356,7.58836 -3.91552,15.21238 -5.71429,22.85715 -2.01108,8.54711 -3.36423,17.2541 -5.71428,25.71428 -5.1365,18.49138 -10.40778,27.61726 -14.28572,45.71429 -1.41104,6.58486 -1.83313,13.34396 -2.85714,20 -0.88088,5.72574 -1.82084,11.44319 -2.85714,17.14286 -0.86871,4.77787 -2.37393,9.4536 -2.85715,14.28571 -0.47382,4.73827 0.47383,9.54744 0,14.28571 -0.48321,4.83211 -2.41748,9.44945 -2.85714,14.28572 -0.51735,5.69082 1.0222,11.52074 0,17.14286 -0.91745,5.046 -4.70846,9.25658 -5.71428,14.28571 -0.93389,4.66943 0.52586,9.55294 0,14.28571 -0.43364,3.90275 -2.37009,7.53213 -2.85715,11.42858 -0.47251,3.7801 0.53875,7.65733 0,11.42857 -0.42591,2.98142 -2.36202,5.60071 -2.85714,8.57143 -0.78285,4.69711 0,9.52381 0,14.28571 0,9.52381 0,19.04762 0,28.57143 0,7.61905 0,15.23809 0,22.85714 0,0.67895 -0.32019,10.7882 0,11.42857 0.3793,0.75861 7.81283,8.19213 8.57143,8.57143 0.85183,0.42592 1.95363,-0.30117 2.85714,0 4.04061,1.34687 7.38796,4.36742 11.42857,5.71429 1.65507,0.55169 8.95262,0 11.42857,0 9.52381,0 19.04762,0 28.57143,0 9.52381,0 19.04762,0 28.57143,0 2.419,0 9.89256,0.512 11.42857,0 1.27776,-0.42592 1.90476,-1.90476 2.85715,-2.85715 0.95238,-0.95238 2.2548,-1.65246 2.85714,-2.85714 0.42592,-0.85183 -0.67344,-2.18371 0,-2.85714 5.91153,-5.91153 -0.23109,9.0336 5.71428,-2.85714 0.42592,-0.85184 -0.42591,-2.00531 0,-2.85715 0.60234,-1.20467 2.25481,-1.65246 2.85715,-2.85714 0.42591,-0.85183 0,-1.90476 0,-2.85714 0,-0.95238 0,-1.90476 0,-2.85715 0,-5.71428 0,-11.42857 0,-17.14285 0,-13.33334 0,-26.66667 0,-40 0,-0.69294 0.0919,-8.47955 0,-8.57143 -0.67344,-0.67344 -2.00531,0.42592 -2.85715,0 -1.20467,-0.60234 -1.90476,-1.90476 -2.85714,-2.85714 -0.95238,-0.95238 -2.2548,-1.65247 -2.85714,-2.85715 -0.42592,-0.85183 0.67343,-2.1837 0,-2.85714 -5.9056,-5.9056 -3.88009,-1.68431 -8.57143,-2.85714 -28.86746,-7.21687 2.06339,1.03169 -11.42857,-5.71429 -0.9105,-0.45525 -11.73222,0 -14.28572,0 -11.42857,0 -22.85714,0 -34.28571,0 -9.52381,0 -19.04762,0 -28.57143,0 -0.95238,0 -1.90476,0 -2.85714,0 -0.95238,0 -2.18371,-0.67343 -2.85714,0 -0.67344,0.67344 0.67343,2.18371 0,2.85714 -3.80953,3.80953 -2.85715,-4.7619 -2.85715,2.85715"
       id="path4047"
       inkscape:connector-curvature="0" />
  </g>
</svg>
