<?xml version="1.0" encoding="UTF-8" standalone="no"?>
<!-- Created with Inkscape (http://www.inkscape.org/) -->

<svg
   xmlns:dc="http://purl.org/dc/elements/1.1/"
   xmlns:cc="http://creativecommons.org/ns#"
   xmlns:rdf="http://www.w3.org/1999/02/22-rdf-syntax-ns#"
   xmlns:svg="http://www.w3.org/2000/svg"
   xmlns="http://www.w3.org/2000/svg"
   xmlns:sodipodi="http://sodipodi.sourceforge.net/DTD/sodipodi-0.dtd"
   xmlns:inkscape="http://www.inkscape.org/namespaces/inkscape"
   width="210mm"
   height="297mm"
   viewBox="0 0 744.09448819 1052.3622047"
   id="svg2"
   version="1.1"
   inkscape:version="0.91 r13725"
   sodipodi:docname="x.svg">
  <defs
     id="defs4" />
  <sodipodi:namedview
     id="base"
     pagecolor="#ffffff"
     bordercolor="#666666"
     borderopacity="1.0"
     inkscape:pageopacity="0.0"
     inkscape:pageshadow="2"
     inkscape:zoom="0.35"
     inkscape:cx="380.71429"
     inkscape:cy="520"
     inkscape:document-units="px"
     inkscape:current-layer="layer1"
     showgrid="false"
     inkscape:window-width="1920"
     inkscape:window-height="1051"
     inkscape:window-x="0"
     inkscape:window-y="0"
     inkscape:window-maximized="1" />
  <metadata
     id="metadata7">
    <rdf:RDF>
      <cc:Work
         rdf:about="">
        <dc:format>image/svg+xml</dc:format>
        <dc:type
           rdf:resource="http://purl.org/dc/dcmitype/StillImage" />
        <dc:title></dc:title>
      </cc:Work>
    </rdf:RDF>
  </metadata>
  <g
     inkscape:label="Layer 1"
     inkscape:groupmode="layer"
     id="layer1">
    <flowRoot
       xml:space="preserve"
       id="flowRoot3485"
       style="fill:black;stroke:none;stroke-opacity:1;stroke-width:1px;stroke-linejoin:miter;stroke-linecap:butt;fill-opacity:1;font-family:'DejaVu Sans';font-style:normal;font-weight:normal;font-size:7.5px;line-height:125%;letter-spacing:0px;word-spacing:0px;text-anchor:start;text-align:start;writing-mode:lr;-inkscape-font-specification:'DejaVu Sans, Normal';font-stretch:normal;font-variant:normal"><flowRegion
         id="flowRegion3487"><rect
           id="rect3489"
           width="80"
           height="105.71429"
           x="137.14285"
           y="323.79077" /></flowRegion><flowPara
         id="flowPara3491"></flowPara></flowRoot>    <path
       style="fill:none;fill-rule:evenodd;stroke:#000000;stroke-width:1px;stroke-linecap:butt;stroke-linejoin:miter;stroke-opacity:1"
       d="m 311.42857,838.07649 c 0,-110.47619 0,-220.95238 0,-331.42857 0,-30.47619 0,-60.95238 0,-91.42857 0,-19.04762 0,-38.09524 0,-57.14286 0,-6.66667 0,-13.33333 0,-20 0,-1.90476 0,-3.80952 0,-5.71429 0,-1.90476 -0.46197,-3.86639 0,-5.71428 0.5165,-2.06601 2.34064,-3.64828 2.85714,-5.71429 0.46198,-1.84789 0,-3.80952 0,-5.71428 0,-1.90476 0,-3.80953 0,-5.71429 0,-8.57143 0,-17.14286 0,-25.71428 0,-0.95238 0,-1.90477 0,-2.85715 0,-0.95238 0.67344,-2.1837 0,-2.85714 -0.67343,-0.67343 -1.90476,0 -2.85714,0 -1.90476,0 -3.80952,0 -5.71428,0 -7.61905,0 -15.2381,0 -22.85715,0 -1.90476,0 -3.84651,-0.37355 -5.71428,0 -2.95321,0.59064 -5.87769,1.51027 -8.57143,2.85714 -1.20468,0.60234 -1.90476,1.90477 -2.85714,2.85715 -1.90477,1.90476 -3.80953,3.80952 -5.71429,5.71428 -0.95238,0.95238 -1.73648,2.11004 -2.85714,2.85714 -5.67224,3.7815 -7.30925,1.70589 -11.42857,8.57143 -1.54951,2.58251 -1.30764,5.98893 -2.85715,8.57143 -1.38592,2.30986 -4.32836,3.40442 -5.71428,5.71429 -1.54951,2.5825 -1.90476,5.71428 -2.85715,8.57143 -0.95238,2.85714 -1.90476,5.71428 -2.85714,8.57142 -0.95238,2.85715 -1.73863,5.77515 -2.85714,8.57143 -3.94102,9.85255 -2.55564,1.65112 -5.71429,14.28572 -1.42857,5.71428 2.85715,0 0,8.57143 -0.42591,1.27775 -2.2548,1.65246 -2.85714,2.85714 -0.32019,0.64037 0,10.74963 0,11.42857 0,6.66667 0,13.33333 0,20 0,6.66667 0,13.33333 0,20 0,0.95238 -0.67344,2.18371 0,2.85714 3.92585,3.92585 9.43862,2.85715 14.28571,2.85715 7.61905,0 15.2381,0 22.85715,0 15.23809,0 30.47619,0 45.71428,0 4.76191,0 9.52381,0 14.28572,0 0.95238,0 1.90476,0 2.85714,0 0.95238,0 2.00531,0.42591 2.85714,0 1.20468,-0.60234 1.73648,-2.11004 2.85715,-2.85715 1.77192,-1.18128 3.94236,-1.67586 5.71428,-2.85714 2.24133,-1.49422 3.47296,-4.22007 5.71429,-5.71429 1.77192,-1.18128 4.20844,-1.35129 5.71428,-2.85714 3.0117,-3.01169 2.7026,-8.41688 5.71429,-11.42857 1.50585,-1.50585 4.20844,-1.3513 5.71428,-2.85714 0.18309,-0.18309 5.35949,-10.89637 5.71429,-11.42857 0.74711,-1.12067 1.90476,-1.90477 2.85714,-2.85715 4.76191,-4.7619 9.52381,-9.52381 14.28572,-14.28571 1.90476,-1.90476 4.09804,-3.55929 5.71428,-5.71429 3.34164,-4.45551 3.61514,-10.98151 8.57143,-14.28571 1.77193,-1.18128 3.94236,-1.67586 5.71429,-2.85714 2.6009,-1.73394 6.03903,-7.30524 8.57143,-8.57143 0.85183,-0.42592 2.0053,0.42592 2.85714,0 13.07602,-6.53801 -12.12405,1.1842 8.57143,-5.71429 1.80701,-0.60234 3.80952,0 5.71428,0 4.76191,0 9.52381,0 14.28572,0 1.70107,0 16.07101,-0.53592 17.14285,0 7.44086,3.72043 5.31304,7.76893 8.57143,14.28572 1.53567,3.07133 4.36163,5.41521 5.71429,8.57142 1.54683,3.60927 1.61539,7.70332 2.85714,11.42858 3.80953,11.42857 2.7416,-0.57772 5.71429,14.28571 0.37355,1.86777 0,3.80952 0,5.71429 0,2.85714 0,5.71428 0,8.57142 0,10.4762 0,20.95239 0,31.42858 0,26.66666 0,53.33333 0,80 0,35.23809 0,70.47619 0,105.71428 0,11.42857 0,22.85714 0,34.28572 0,2.85714 0.40406,5.743 0,8.57142 0.27053,7.23453 -4.57444,13.1609 -5.71429,20 -0.46971,2.81827 0.40406,5.74301 0,8.57143 -1.11066,7.77461 -4.84701,15.05165 -5.71428,22.85715 -0.52587,4.73278 0.47382,9.54744 0,14.28571 -2.83328,28.33278 -1.70258,2.79859 -5.71429,22.85714 -0.37355,1.86778 0,3.80953 0,5.71429 0,4.7619 0,9.52381 0,14.28571 0,14.28572 0,28.57143 0,42.85715 0,8.57142 0,17.14285 0,25.71428 0,1.49406 -0.37563,10.67731 0,11.42857 1.20468,2.40936 4.50961,3.30493 5.71429,5.71429 0.42591,0.85183 -0.67344,2.18371 0,2.85714 0.67343,0.67344 2.1837,-0.67343 2.85714,0 0.67343,0.67344 -0.67344,2.18371 0,2.85714 1.50585,1.50585 3.80952,1.90477 5.71428,2.85715 1.90477,0.95238 3.69398,2.18371 5.71429,2.85714 0.90351,0.30117 2.00531,-0.42592 2.85714,0 1.20468,0.60234 1.65247,2.2548 2.85715,2.85714 0.85183,0.42592 1.90476,0 2.85714,0 1.90476,0 3.80952,0 5.71428,0 4.76191,0 9.52381,0 14.28572,0 16.19047,0 32.38095,0 48.57143,0"
       id="path4001"
       inkscape:connector-curvature="0" />
  </g>
</svg>
