<?xml version="1.0" encoding="UTF-8" standalone="no"?>
<!-- Created with Inkscape (http://www.inkscape.org/) -->

<svg
   xmlns:dc="http://purl.org/dc/elements/1.1/"
   xmlns:cc="http://creativecommons.org/ns#"
   xmlns:rdf="http://www.w3.org/1999/02/22-rdf-syntax-ns#"
   xmlns:svg="http://www.w3.org/2000/svg"
   xmlns="http://www.w3.org/2000/svg"
   xmlns:sodipodi="http://sodipodi.sourceforge.net/DTD/sodipodi-0.dtd"
   xmlns:inkscape="http://www.inkscape.org/namespaces/inkscape"
   width="210mm"
   height="297mm"
   viewBox="0 0 744.09448819 1052.3622047"
   id="svg2"
   version="1.1"
   inkscape:version="0.91 r13725"
   sodipodi:docname="y.svg">
  <defs
     id="defs4" />
  <sodipodi:namedview
     id="base"
     pagecolor="#ffffff"
     bordercolor="#666666"
     borderopacity="1.0"
     inkscape:pageopacity="0.0"
     inkscape:pageshadow="2"
     inkscape:zoom="0.35"
     inkscape:cx="380.71429"
     inkscape:cy="520"
     inkscape:document-units="px"
     inkscape:current-layer="layer1"
     showgrid="false"
     inkscape:window-width="1920"
     inkscape:window-height="1051"
     inkscape:window-x="0"
     inkscape:window-y="0"
     inkscape:window-maximized="1" />
  <metadata
     id="metadata7">
    <rdf:RDF>
      <cc:Work
         rdf:about="">
        <dc:format>image/svg+xml</dc:format>
        <dc:type
           rdf:resource="http://purl.org/dc/dcmitype/StillImage" />
        <dc:title></dc:title>
      </cc:Work>
    </rdf:RDF>
  </metadata>
  <g
     inkscape:label="Layer 1"
     inkscape:groupmode="layer"
     id="layer1">
    <flowRoot
       xml:space="preserve"
       id="flowRoot3485"
       style="fill:black;stroke:none;stroke-opacity:1;stroke-width:1px;stroke-linejoin:miter;stroke-linecap:butt;fill-opacity:1;font-family:'DejaVu Sans';font-style:normal;font-weight:normal;font-size:7.5px;line-height:125%;letter-spacing:0px;word-spacing:0px;text-anchor:start;text-align:start;writing-mode:lr;-inkscape-font-specification:'DejaVu Sans, Normal';font-stretch:normal;font-variant:normal"><flowRegion
         id="flowRegion3487"><rect
           id="rect3489"
           width="80"
           height="105.71429"
           x="137.14285"
           y="323.79077" /></flowRegion><flowPara
         id="flowPara3491"></flowPara></flowRoot>    <path
       style="fill:none;fill-rule:evenodd;stroke:#000000;stroke-width:1px;stroke-linecap:butt;stroke-linejoin:miter;stroke-opacity:1"
       d="m 214.28571,452.3622 c 15.2381,0 30.47619,0 45.71429,0 6.66667,0 13.33333,0 20,0 3.80952,0 7.65734,0.53875 11.42857,0 10.05411,-1.4363 8.08932,-4.04466 17.14286,-8.57142 2.69374,-1.34687 5.87769,-1.51028 8.57143,-2.85715 3.07133,-1.53566 5.62692,-3.94758 8.57143,-5.71428 1.8261,-1.09567 4.01061,-1.57939 5.71428,-2.85715 2.15499,-1.61624 3.80953,-3.80952 5.71429,-5.71428 3.80952,-3.80952 8.06304,-7.22166 11.42857,-11.42857 17.34031,-21.6754 -4.1031,3.98135 8.57143,-17.14286 1.38592,-2.30986 4.50961,-3.30493 5.71428,-5.71429 1.75611,-3.5122 1.77838,-7.65289 2.85715,-11.42857 0.82737,-2.89581 2.43122,-5.59 2.85714,-8.57143 0.53875,-3.77123 0,-7.61904 0,-11.42857 0,-8.57143 0,-17.14285 0,-25.71428 0,-6.66667 0,-13.33334 0,-20 0,-0.95238 0.85183,-2.43123 0,-2.85715 -1.70367,-0.85183 -3.80953,0 -5.71429,0 -1.90476,0 -3.80952,0 -5.71428,0 -0.95238,0 -1.90476,0 -2.85715,0 -1.90476,0 -4.19047,-1.14285 -5.71428,0 -2.74709,2.06032 -4.01062,5.59001 -5.71429,8.57143 -2.11314,3.698 -3.80952,7.61905 -5.71428,11.42857 -1.90476,3.80953 -4.21879,7.44058 -5.71429,11.42858 -2.75756,7.35349 -3.23078,15.40662 -5.71428,22.85714 -1.62185,4.86554 -3.63132,9.59902 -5.71429,14.28571 -1.72982,3.89209 -4.36742,7.38796 -5.71429,11.42857 -1.53566,4.60701 -1.57939,9.60062 -2.85714,14.28572 -1.58486,5.81114 -4.2534,11.29931 -5.71428,17.14286 -1.58129,6.32513 -4.80803,31.70532 -5.71429,37.14285 -1.59671,9.58027 -4.64173,18.91842 -5.71429,28.57143 -0.42069,3.78623 0.53875,7.65734 0,11.42857 -0.42591,2.98143 -2.36202,5.60072 -2.85714,8.57143 -0.46971,2.81827 0,5.71429 0,8.57143 0,5.71429 0,11.42857 0,17.14286 0,16.19047 0,32.38095 0,48.57143 0,19.04762 0,38.09523 0,57.14285 0,5.71429 0,11.42857 0,17.14286 0,1.28674 0.43476,7.7019 0,8.57143 -0.60234,1.20468 -2.43122,1.57939 -2.85714,2.85714 -0.90351,2.71053 0,5.71429 0,8.57143 0,5.71429 0,11.42857 0,17.14286"
       id="path3969"
       inkscape:connector-curvature="0" />
    <path
       style="fill:none;fill-rule:evenodd;stroke:#000000;stroke-width:1px;stroke-linecap:butt;stroke-linejoin:miter;stroke-opacity:1"
       d="m 194.28571,612.3622 c 1.90477,4.76191 4.30532,9.35432 5.71429,14.28572 0.52328,1.83147 -0.46197,3.86639 0,5.71428 0.5165,2.06601 2.34064,3.64829 2.85714,5.71429 0.46198,1.84789 -0.46197,3.8664 0,5.71429 0.5165,2.066 2.18371,3.69398 2.85715,5.71428 0.30117,0.90351 -0.30117,1.95364 0,2.85714 2,6 6.57142,11.14286 8.57142,17.14286 0.30117,0.90351 0,1.90476 0,2.85714 0.95239,0.95239 2.25481,1.65247 2.85715,2.85715 0.42591,0.85183 -0.67344,2.18371 0,2.85714 0.67343,0.67344 2.1837,-0.67343 2.85714,0 1.34687,1.34687 -1.34687,4.36742 0,5.71429 3.47995,3.47995 6.38346,1.33835 8.57143,5.71428 0.42592,0.85184 -0.67344,2.18371 0,2.85714 1.34687,1.34687 4.01061,-0.85183 5.71428,0 2.40936,1.20468 3.30494,4.50961 5.71429,5.71429 1.70367,0.85184 4.36742,-1.34687 5.71429,0 0.67343,0.67344 -0.67344,2.18371 0,2.85714 0.67343,0.67344 2.0053,-0.42591 2.85714,0 1.20468,0.60234 1.65246,2.25481 2.85714,2.85715 1.70367,0.85183 4.36742,-1.34687 5.71429,0 0.67343,0.67343 -0.67344,2.1837 0,2.85714 0.67343,0.67343 1.90476,0 2.85714,0 6.66667,0 13.33333,0 20,0 0.95238,0 1.90476,0 2.85714,0 0.95238,0 2.18371,0.67343 2.85715,0 0.67343,-0.67344 0,-1.90476 0,-2.85714 0,-7.61905 0,-15.2381 0,-22.85715 0,-1.90476 -0.95239,-4.7619 2.85714,-2.85714 6.3173,3.15865 0.88663,1.77327 2.85714,5.71429 9.47595,9.47595 -1.34687,-2.69374 2.85714,5.71428 0.60234,1.20468 2.25481,1.65247 2.85715,2.85714 0.42591,0.85184 -0.67344,2.18371 0,2.85715 0.67343,0.67343 2.1837,-0.67344 2.85714,0 0.67344,0.67343 -0.67344,2.18371 0,2.85714 0.67344,0.67344 2.18371,-0.67343 2.85714,0 0.67344,0.67344 -0.42591,2.00531 0,2.85714 0.60234,1.20468 1.90476,1.90477 2.85715,2.85715 0.95238,0.95238 1.65246,2.2548 2.85714,2.85714 0.85183,0.42592 2.18371,-0.67344 2.85714,0 0.67344,0.67343 -0.67343,2.18371 0,2.85714 0.67344,0.67344 2.18371,-0.67343 2.85714,0 0.67344,0.67344 -0.67343,2.18371 0,2.85714 0.67344,0.67344 1.90477,0 2.85715,0 5.71428,0 11.42857,0 17.14285,0 4.76191,0 9.52381,0 14.28572,0 0.95238,0 1.90476,0 2.85714,0 0.95238,0 2.00531,0.42592 2.85714,0 1.20468,-0.60233 1.65247,-2.2548 2.85715,-2.85714 0.85183,-0.42592 2.1837,0.67344 2.85714,0 0.67344,-0.67343 -0.67344,-2.18371 0,-2.85714 0.67344,-0.67344 2.18371,0.67343 2.85714,0 0.67344,-0.67344 -0.67343,-2.18371 0,-2.85714 0.67344,-0.67344 2.18371,0.67343 2.85715,0 0.67343,-0.67344 -0.42592,-2.00531 0,-2.85715 0.60233,-1.20467 2.2548,-1.65246 2.85714,-2.85714 0.42592,-0.85183 0,-1.90476 0,-2.85714 0.95238,-0.95238 2.2548,-1.65247 2.85714,-2.85715 0.85184,-1.70367 -1.34687,-4.36741 0,-5.71428 0.67344,-0.67344 2.18371,0.67343 2.85714,0 0.67344,-0.67344 -0.42591,-2.00531 0,-2.85714 0.60234,-1.20468 2.25481,-1.65247 2.85715,-2.85715 1.14285,-2.28571 -1.14286,-6.28571 0,-8.57143 0.60234,-1.20467 2.2548,-1.65246 2.85714,-2.85714 0.56642,-1.13283 -0.5841,-7.98732 0,-8.57143 5.91153,-5.91153 -0.23109,9.0336 5.71429,-2.85714 0.77498,-1.54996 -0.78178,-10.64679 0,-11.42857 0.67343,-0.67344 2.1837,0.67343 2.85714,0 0.11497,-0.11498 0,-10.37933 0,-11.42857 0,-0.95238 0,-1.90476 0,-2.85715 0,-0.95238 -0.95238,-2.85714 0,-2.85714 0.95238,0 0,3.80953 0,2.85714 0,-1.90476 0,-3.80952 0,-5.71428"
       id="path3971"
       inkscape:connector-curvature="0" />
  </g>
</svg>
