<?xml version="1.0" encoding="UTF-8" standalone="no"?>
<!-- Created with Inkscape (http://www.inkscape.org/) -->

<svg
   xmlns:dc="http://purl.org/dc/elements/1.1/"
   xmlns:cc="http://creativecommons.org/ns#"
   xmlns:rdf="http://www.w3.org/1999/02/22-rdf-syntax-ns#"
   xmlns:svg="http://www.w3.org/2000/svg"
   xmlns="http://www.w3.org/2000/svg"
   xmlns:sodipodi="http://sodipodi.sourceforge.net/DTD/sodipodi-0.dtd"
   xmlns:inkscape="http://www.inkscape.org/namespaces/inkscape"
   width="210mm"
   height="297mm"
   viewBox="0 0 744.09448819 1052.3622047"
   id="svg2"
   version="1.1"
   inkscape:version="0.91 r13725"
   sodipodi:docname="รถ.svg">
  <defs
     id="defs4" />
  <sodipodi:namedview
     id="base"
     pagecolor="#ffffff"
     bordercolor="#666666"
     borderopacity="1.0"
     inkscape:pageopacity="0.0"
     inkscape:pageshadow="2"
     inkscape:zoom="0.35"
     inkscape:cx="380.71429"
     inkscape:cy="520"
     inkscape:document-units="px"
     inkscape:current-layer="layer1"
     showgrid="false"
     inkscape:window-width="1920"
     inkscape:window-height="1051"
     inkscape:window-x="0"
     inkscape:window-y="0"
     inkscape:window-maximized="1" />
  <metadata
     id="metadata7">
    <rdf:RDF>
      <cc:Work
         rdf:about="">
        <dc:format>image/svg+xml</dc:format>
        <dc:type
           rdf:resource="http://purl.org/dc/dcmitype/StillImage" />
        <dc:title></dc:title>
      </cc:Work>
    </rdf:RDF>
  </metadata>
  <g
     inkscape:label="Layer 1"
     inkscape:groupmode="layer"
     id="layer1">
    <flowRoot
       xml:space="preserve"
       id="flowRoot3485"
       style="fill:black;stroke:none;stroke-opacity:1;stroke-width:1px;stroke-linejoin:miter;stroke-linecap:butt;fill-opacity:1;font-family:'DejaVu Sans';font-style:normal;font-weight:normal;font-size:7.5px;line-height:125%;letter-spacing:0px;word-spacing:0px;text-anchor:start;text-align:start;writing-mode:lr;-inkscape-font-specification:'DejaVu Sans, Normal';font-stretch:normal;font-variant:normal"><flowRegion
         id="flowRegion3487"><rect
           id="rect3489"
           width="80"
           height="105.71429"
           x="137.14285"
           y="323.79077" /></flowRegion><flowPara
         id="flowPara3491"></flowPara></flowRoot>    <path
       style="fill:none;fill-rule:evenodd;stroke:#000000;stroke-width:1px;stroke-linecap:butt;stroke-linejoin:miter;stroke-opacity:1"
       d="m 154.28571,720.93363 c 7.09576,4.73086 1.02521,11.64704 2.85715,17.14286 0.42591,1.27775 2.2548,1.65247 2.85714,2.85714 0.42592,0.85184 -0.42592,2.00531 0,2.85715 0.60234,1.20467 2.2548,1.65246 2.85714,2.85714 0.42592,0.85183 -0.67343,2.18371 0,2.85714 0.67344,0.67344 2.18371,-0.67343 2.85715,0 0.67343,0.67344 -0.67344,2.18371 0,2.85714 0.67343,0.67344 2.1837,-0.67343 2.85714,0 0.67343,0.67344 -0.67344,2.18371 0,2.85715 1.34687,1.34687 4.01061,-0.85184 5.71428,0 2.40936,1.20467 3.30494,4.50961 5.71429,5.71428 0.85184,0.42592 1.90476,0 2.85714,0 0.95238,0 1.90476,0 2.85715,0 5.71428,0 11.42857,0 17.14285,0 2.18407,0 19.19616,0.40193 20,0 2.40936,-1.20467 3.47296,-4.22006 5.71429,-5.71428 1.77192,-1.18129 4.20844,-1.3513 5.71428,-2.85715 1.50585,-1.50584 1.67586,-3.94236 2.85715,-5.71428 0.74711,-1.12066 2.11003,-1.73648 2.85714,-2.85714 3.35025,-5.02539 3.3911,-8.47777 5.71429,-14.28572 0.79091,-1.97727 1.90476,-3.80952 2.85714,-5.71428 1.90476,-2.85715 4.36162,-5.41522 5.71428,-8.57143 1.54683,-3.60927 1.77838,-7.65289 2.85715,-11.42857 0.82737,-2.89582 2.02976,-5.67562 2.85714,-8.57143 1.07877,-3.77568 1.77838,-7.65289 2.85714,-11.42857 1.65475,-5.79163 4.72405,-11.20143 5.71429,-17.14286 0.46971,-2.81827 -0.56033,-5.76977 0,-8.57143 0.41765,-2.08823 2.34064,-3.64828 2.85714,-5.71429 0.46197,-1.84789 0,-3.80952 0,-5.71428 0,-5.71429 0,-11.42857 0,-17.14286 0,-2.85714 -0.56033,-5.76977 0,-8.57143 0.41765,-2.08823 2.4395,-3.62605 2.85714,-5.71428 0.56034,-2.80166 -0.46971,-5.75316 0,-8.57143 0.49512,-2.97072 2.26651,-5.61822 2.85715,-8.57143 0.37355,-1.86777 0,-3.80952 0,-5.71429 0,-5.71428 0,-11.42857 0,-17.14285 0,-3.80953 -0.53875,-7.65734 0,-11.42857 0.42591,-2.98143 2.43122,-5.59001 2.85714,-8.57143 0.93333,-6.53334 -0.93333,-13.46667 0,-20 0.55533,-3.8873 2.30181,-7.54127 2.85714,-11.42857 0.40406,-2.82843 -0.46971,-5.75316 0,-8.57143 0.49512,-2.97072 2.2665,-5.61822 2.85715,-8.57143 0.37355,-1.86777 -0.46198,-3.8664 0,-5.71429 0.5165,-2.066 2.34064,-3.64828 2.85714,-5.71428 0.69296,-2.77184 0,-5.71429 0,-8.57143 0,-9.52381 0,-19.04762 0,-28.57143 0,-3.00184 -0.56706,-11.45043 0,-14.28571 0.59064,-2.95321 2.1267,-5.64966 2.85714,-8.57143 0.6111,-2.44439 0,-11.42997 0,-14.28572 0,-8.57143 0,-17.14285 0,-25.71428 0,-11.42857 0,-22.85715 0,-34.28572 0,-1.90476 0,-3.80952 0,-5.71428 0,-0.95238 -0.95238,-2.85715 0,-2.85715 0.95238,0 0,1.90477 0,2.85715 0,4.7619 0,9.52381 0,14.28571 0,17.14286 0,34.28572 0,51.42857 0,40.95238 0,81.90477 0,122.85715 0,5.71428 0,11.42857 0,17.14285 0,0.95238 0.67344,2.18371 0,2.85715 -0.67343,0.67343 -2.18371,-0.67344 -2.85714,0 -1.34687,1.34687 0.85183,4.01061 0,5.71428 -9.47595,9.47595 1.34687,-2.69374 -2.85714,5.71429 -0.60234,1.20467 -2.25481,1.65246 -2.85715,2.85714 -0.85183,1.70367 0.85184,4.01062 0,5.71429 -0.60234,1.20467 -2.2548,1.65246 -2.85714,2.85714 -0.56642,1.13283 0.5841,7.98732 0,8.57143 -0.67344,0.67343 -2.18371,-0.67344 -2.85714,0 -1.34687,1.34687 0.85183,4.01061 0,5.71428 -0.60234,1.20468 -2.25481,1.65247 -2.85715,2.85715 -0.85183,1.70367 0.85184,4.01061 0,5.71428 -0.60233,1.20468 -2.2548,1.65247 -2.85714,2.85714 -0.42592,0.85184 0.42592,2.00531 0,2.85715 -0.60234,1.20467 -2.2548,1.65246 -2.85714,2.85714 -0.90124,1.80248 0.90124,12.48323 0,14.28571 -0.60234,1.20468 -2.25481,1.65247 -2.85714,2.85715 -0.43434,0.86867 0,9.45565 0,11.42857 0,8.57143 0,17.14286 0,25.71428 0,22.85715 0,45.71429 0,68.57143 0,1.04925 -0.11498,11.3136 0,11.42857 0.67343,0.67344 2.0053,-0.42591 2.85714,0 1.20468,0.60234 1.65246,2.25481 2.85714,2.85715 1.70367,0.85183 4.36742,-1.34687 5.71429,0 0.67343,0.67343 -0.67344,2.18371 0,2.85714 0.67343,0.67344 2.0053,-0.42592 2.85714,0 1.20468,0.60234 1.65247,2.2548 2.85714,2.85714 0.85184,0.42592 2.18371,-0.67343 2.85715,0 0.67343,0.67344 -0.85184,2.43123 0,2.85715 2.25387,2.5555 6.01592,-1.27776 8.57142,0 1.20468,0.60233 1.65247,2.2548 2.85715,2.85714 1.03324,0.51662 12.29845,0 14.28571,0 11.42857,0 22.85714,0 34.28572,0 17.14285,0 34.28571,0 51.42857,0 4.7619,0 9.52381,0 14.28571,0 0.95238,0 1.90476,0 2.85714,0 0.95239,0 2.00531,0.42592 2.85715,0 3.27548,-1.63774 3.97431,-5.96147 5.71428,-8.57143 1.49422,-2.24133 4.86245,-3.15878 5.71429,-5.71429 0.60234,-1.80701 -0.60234,-3.90727 0,-5.71428 0.42592,-1.27775 1.90476,-1.90476 2.85714,-2.85714 2.90435,-2.90435 4.56113,-3.95879 5.71429,-8.57143 0.46197,-1.84789 -0.60234,-3.90727 0,-5.71429 0.42591,-1.27775 2.43122,-1.57939 2.85714,-2.85714 0.60234,-1.80702 -0.60234,-3.90727 0,-5.71429 0.42592,-1.27775 2.43123,-1.57939 2.85714,-2.85714 0.60234,-1.80702 -0.46197,-3.86639 0,-5.71429 0.5165,-2.066 2.34064,-3.64828 2.85715,-5.71428 1.03454,-4.13818 -0.8268,-13.00887 0,-17.14286 0.41764,-2.08823 1.90476,-3.80952 2.85714,-5.71428 0.95238,-2.85715 2.36202,-5.60072 2.85714,-8.57143 0.46971,-2.81827 -0.46971,-5.75316 0,-8.57143 0.49512,-2.97072 2.36203,-5.60071 2.85714,-8.57143 0.46972,-2.81827 -0.56033,-5.76977 0,-8.57143 0.41765,-2.08823 2.18371,-3.69398 2.85715,-5.71428 0.30117,-0.90351 -0.30117,-1.95364 0,-2.85715 0.67343,-2.0203 2.34064,-3.64828 2.85714,-5.71428 0.54319,-2.17276 0,-11.89318 0,-14.28572 0,-1.90476 -0.46197,-3.86639 0,-5.71428 0.5165,-2.06601 2.4395,-3.62605 2.85714,-5.71429 0,-21.79611 -1.27775,2.25387 2.85715,-14.28571 0.46197,-1.84789 0,-3.80953 0,-5.71429 0,-5.71428 0,-11.42857 0,-17.14286 0,-18.09523 0,-36.19047 0,-54.28571 0,-54.28571 0,-108.57143 0,-162.85714"
       id="path3918"
       inkscape:connector-curvature="0" />
  </g>
</svg>
